<svg width="330" height="441" viewBox="0 0 330 441" fill="none" xmlns="http://www.w3.org/2000/svg">
<g clip-path="url(#clip0_1_21)">
<rect width="330" height="441" rx="10" fill="#F8F8F8"/>
<g clip-path="url(#clip1_1_21)">
<rect x="24" y="354" width="285" height="60" rx="10" fill="white" stroke="#EAE9F2"/>
<path d="M127.313 390.204C126.191 390.204 125.21 389.949 124.372 389.439C123.533 388.929 122.881 388.221 122.417 387.314C121.952 386.396 121.72 385.331 121.72 384.118C121.72 382.894 121.958 381.817 122.434 380.888C122.921 379.947 123.607 379.216 124.491 378.695C125.386 378.162 126.446 377.896 127.67 377.896C129.064 377.896 130.22 378.23 131.138 378.899C132.056 379.568 132.651 380.491 132.923 381.67H130.492C130.31 381.115 129.982 380.684 129.506 380.378C129.03 380.061 128.418 379.902 127.67 379.902C126.48 379.902 125.562 380.282 124.916 381.041C124.27 381.789 123.947 382.82 123.947 384.135C123.947 385.45 124.264 386.47 124.899 387.195C125.545 387.909 126.417 388.266 127.517 388.266C128.593 388.266 129.404 387.977 129.948 387.399C130.503 386.81 130.837 386.039 130.951 385.087H127.942V383.455H133.144V390H131.138L130.968 388.436C130.582 389.003 130.101 389.439 129.523 389.745C128.945 390.051 128.208 390.204 127.313 390.204ZM138.774 390.204C137.924 390.204 137.17 390.023 136.513 389.66C135.855 389.297 135.34 388.787 134.966 388.13C134.592 387.473 134.405 386.713 134.405 385.852C134.405 384.979 134.586 384.203 134.949 383.523C135.323 382.843 135.833 382.316 136.479 381.942C137.136 381.557 137.907 381.364 138.791 381.364C139.618 381.364 140.349 381.545 140.984 381.908C141.618 382.271 142.111 382.769 142.463 383.404C142.825 384.027 143.007 384.724 143.007 385.495C143.007 385.62 143.001 385.75 142.99 385.886C142.99 386.022 142.984 386.164 142.973 386.311H136.564C136.609 386.968 136.836 387.484 137.244 387.858C137.663 388.232 138.167 388.419 138.757 388.419C139.199 388.419 139.567 388.323 139.862 388.13C140.168 387.926 140.394 387.665 140.542 387.348H142.752C142.593 387.881 142.327 388.368 141.953 388.81C141.59 389.241 141.137 389.581 140.593 389.83C140.06 390.079 139.454 390.204 138.774 390.204ZM138.791 383.132C138.258 383.132 137.788 383.285 137.38 383.591C136.972 383.886 136.711 384.339 136.598 384.951H140.797C140.763 384.396 140.559 383.954 140.185 383.625C139.811 383.296 139.346 383.132 138.791 383.132ZM147.913 390C147.029 390 146.321 389.785 145.788 389.354C145.255 388.923 144.989 388.158 144.989 387.059V383.387H143.544V381.568H144.989L145.244 379.307H147.165V381.568H149.443V383.387H147.165V387.076C147.165 387.484 147.25 387.767 147.42 387.926C147.601 388.073 147.907 388.147 148.338 388.147H149.392V390H147.913ZM158.413 390.204C157.54 390.204 156.77 390.057 156.101 389.762C155.432 389.456 154.905 389.025 154.52 388.47C154.135 387.903 153.936 387.218 153.925 386.413H156.22C156.243 386.968 156.441 387.439 156.815 387.824C157.2 388.198 157.727 388.385 158.396 388.385C158.974 388.385 159.433 388.249 159.773 387.977C160.113 387.694 160.283 387.32 160.283 386.855C160.283 386.368 160.13 385.988 159.824 385.716C159.529 385.444 159.133 385.223 158.634 385.053C158.135 384.883 157.603 384.702 157.036 384.509C156.118 384.192 155.415 383.784 154.928 383.285C154.452 382.786 154.214 382.123 154.214 381.296C154.203 380.593 154.367 379.993 154.707 379.494C155.058 378.984 155.534 378.593 156.135 378.321C156.736 378.038 157.427 377.896 158.209 377.896C159.002 377.896 159.699 378.038 160.3 378.321C160.912 378.604 161.388 379.001 161.728 379.511C162.079 380.021 162.266 380.627 162.289 381.33H159.96C159.949 380.911 159.784 380.542 159.467 380.225C159.161 379.896 158.73 379.732 158.175 379.732C157.699 379.721 157.297 379.84 156.968 380.089C156.651 380.327 156.492 380.678 156.492 381.143C156.492 381.54 156.617 381.857 156.866 382.095C157.115 382.322 157.455 382.514 157.886 382.673C158.317 382.832 158.81 383.002 159.365 383.183C159.954 383.387 160.493 383.625 160.98 383.897C161.467 384.169 161.858 384.532 162.153 384.985C162.448 385.427 162.595 385.999 162.595 386.702C162.595 387.325 162.436 387.903 162.119 388.436C161.802 388.969 161.331 389.399 160.708 389.728C160.085 390.045 159.32 390.204 158.413 390.204ZM167.668 390C166.784 390 166.076 389.785 165.543 389.354C165.01 388.923 164.744 388.158 164.744 387.059V383.387H163.299V381.568H164.744L164.999 379.307H166.92V381.568H169.198V383.387H166.92V387.076C166.92 387.484 167.005 387.767 167.175 387.926C167.356 388.073 167.662 388.147 168.093 388.147H169.147V390H167.668ZM173.442 390.204C172.717 390.204 172.122 390.091 171.657 389.864C171.192 389.626 170.847 389.314 170.62 388.929C170.393 388.544 170.28 388.119 170.28 387.654C170.28 386.872 170.586 386.237 171.198 385.75C171.81 385.263 172.728 385.019 173.952 385.019H176.094V384.815C176.094 384.237 175.93 383.812 175.601 383.54C175.272 383.268 174.864 383.132 174.377 383.132C173.935 383.132 173.55 383.24 173.221 383.455C172.892 383.659 172.688 383.965 172.609 384.373H170.484C170.541 383.761 170.745 383.228 171.096 382.775C171.459 382.322 171.923 381.976 172.49 381.738C173.057 381.489 173.691 381.364 174.394 381.364C175.595 381.364 176.542 381.664 177.233 382.265C177.924 382.866 178.27 383.716 178.27 384.815V390H176.417L176.213 388.64C175.964 389.093 175.612 389.467 175.159 389.762C174.717 390.057 174.145 390.204 173.442 390.204ZM173.935 388.504C174.558 388.504 175.04 388.3 175.38 387.892C175.731 387.484 175.952 386.98 176.043 386.379H174.19C173.612 386.379 173.198 386.487 172.949 386.702C172.7 386.906 172.575 387.161 172.575 387.467C172.575 387.796 172.7 388.051 172.949 388.232C173.198 388.413 173.527 388.504 173.935 388.504ZM179.815 390V381.568H181.753L181.957 383.149C182.263 382.605 182.677 382.174 183.198 381.857C183.731 381.528 184.354 381.364 185.068 381.364V383.659H184.456C183.98 383.659 183.555 383.733 183.181 383.88C182.807 384.027 182.512 384.282 182.297 384.645C182.093 385.008 181.991 385.512 181.991 386.158V390H179.815ZM189.781 390C188.897 390 188.188 389.785 187.656 389.354C187.123 388.923 186.857 388.158 186.857 387.059V383.387H185.412V381.568H186.857L187.112 379.307H189.033V381.568H191.311V383.387H189.033V387.076C189.033 387.484 189.118 387.767 189.288 387.926C189.469 388.073 189.775 388.147 190.206 388.147H191.26V390H189.781ZM196.529 390.204C195.679 390.204 194.925 390.023 194.268 389.66C193.61 389.297 193.095 388.787 192.721 388.13C192.347 387.473 192.16 386.713 192.16 385.852C192.16 384.979 192.341 384.203 192.704 383.523C193.078 382.843 193.588 382.316 194.234 381.942C194.891 381.557 195.662 381.364 196.546 381.364C197.373 381.364 198.104 381.545 198.739 381.908C199.373 382.271 199.866 382.769 200.218 383.404C200.58 384.027 200.762 384.724 200.762 385.495C200.762 385.62 200.756 385.75 200.745 385.886C200.745 386.022 200.739 386.164 200.728 386.311H194.319C194.364 386.968 194.591 387.484 194.999 387.858C195.418 388.232 195.922 388.419 196.512 388.419C196.954 388.419 197.322 388.323 197.617 388.13C197.923 387.926 198.149 387.665 198.297 387.348H200.507C200.348 387.881 200.082 388.368 199.708 388.81C199.345 389.241 198.892 389.581 198.348 389.83C197.815 390.079 197.209 390.204 196.529 390.204ZM196.546 383.132C196.013 383.132 195.543 383.285 195.135 383.591C194.727 383.886 194.466 384.339 194.353 384.951H198.552C198.518 384.396 198.314 383.954 197.94 383.625C197.566 383.296 197.101 383.132 196.546 383.132ZM205.936 390.204C205.143 390.204 204.435 390.011 203.811 389.626C203.188 389.241 202.695 388.714 202.332 388.045C201.97 387.376 201.788 386.617 201.788 385.767C201.788 384.917 201.97 384.163 202.332 383.506C202.695 382.837 203.188 382.316 203.811 381.942C204.435 381.557 205.143 381.364 205.936 381.364C206.571 381.364 207.126 381.483 207.602 381.721C208.078 381.959 208.464 382.293 208.758 382.724V377.76H210.934V390H208.996L208.758 388.793C208.486 389.167 208.124 389.496 207.67 389.779C207.228 390.062 206.65 390.204 205.936 390.204ZM206.395 388.3C207.098 388.3 207.67 388.068 208.112 387.603C208.566 387.127 208.792 386.521 208.792 385.784C208.792 385.047 208.566 384.447 208.112 383.982C207.67 383.506 207.098 383.268 206.395 383.268C205.704 383.268 205.132 383.5 204.678 383.965C204.225 384.43 203.998 385.03 203.998 385.767C203.998 386.504 204.225 387.11 204.678 387.586C205.132 388.062 205.704 388.3 206.395 388.3Z" fill="#5454D4"/>
</g>
<path d="M127.185 54V41.4H134.979V42.642H128.697V47.034H134.439V48.258H128.697V52.758H134.979V54H127.185ZM136.692 54V45.072H138.06L138.15 46.674C138.438 46.11 138.852 45.666 139.392 45.342C139.932 45.018 140.544 44.856 141.228 44.856C142.284 44.856 143.124 45.18 143.748 45.828C144.384 46.464 144.702 47.448 144.702 48.78V54H143.19V48.942C143.19 47.082 142.422 46.152 140.886 46.152C140.118 46.152 139.476 46.434 138.96 46.998C138.456 47.55 138.204 48.342 138.204 49.374V54H136.692ZM149.958 54C149.142 54 148.5 53.802 148.032 53.406C147.564 53.01 147.33 52.296 147.33 51.264V46.35H145.782V45.072H147.33L147.528 42.93H148.842V45.072H151.47V46.35H148.842V51.264C148.842 51.828 148.956 52.212 149.184 52.416C149.412 52.608 149.814 52.704 150.39 52.704H151.326V54H149.958ZM156.596 54.216C155.744 54.216 154.988 54.024 154.328 53.64C153.668 53.244 153.146 52.698 152.762 52.002C152.39 51.306 152.204 50.484 152.204 49.536C152.204 48.6 152.39 47.784 152.762 47.088C153.134 46.38 153.65 45.834 154.31 45.45C154.982 45.054 155.756 44.856 156.632 44.856C157.496 44.856 158.24 45.054 158.864 45.45C159.5 45.834 159.986 46.344 160.322 46.98C160.658 47.616 160.826 48.3 160.826 49.032C160.826 49.164 160.82 49.296 160.808 49.428C160.808 49.56 160.808 49.71 160.808 49.878H153.698C153.734 50.562 153.89 51.132 154.166 51.588C154.454 52.032 154.808 52.368 155.228 52.596C155.66 52.824 156.116 52.938 156.596 52.938C157.22 52.938 157.742 52.794 158.162 52.506C158.582 52.218 158.888 51.828 159.08 51.336H160.574C160.334 52.164 159.872 52.854 159.188 53.406C158.516 53.946 157.652 54.216 156.596 54.216ZM156.596 46.134C155.876 46.134 155.234 46.356 154.67 46.8C154.118 47.232 153.8 47.868 153.716 48.708H159.332C159.296 47.904 159.02 47.274 158.504 46.818C157.988 46.362 157.352 46.134 156.596 46.134ZM162.268 54V45.072H163.636L163.762 46.782C164.038 46.194 164.458 45.726 165.022 45.378C165.586 45.03 166.282 44.856 167.11 44.856V46.44H166.696C166.168 46.44 165.682 46.536 165.238 46.728C164.794 46.908 164.44 47.22 164.176 47.664C163.912 48.108 163.78 48.72 163.78 49.5V54H162.268ZM168.244 57.96V45.072H169.612L169.756 46.548C170.044 46.116 170.452 45.726 170.98 45.378C171.52 45.03 172.204 44.856 173.032 44.856C173.92 44.856 174.694 45.06 175.354 45.468C176.014 45.876 176.524 46.434 176.884 47.142C177.256 47.85 177.442 48.654 177.442 49.554C177.442 50.454 177.256 51.258 176.884 51.966C176.524 52.662 176.008 53.214 175.336 53.622C174.676 54.018 173.902 54.216 173.014 54.216C172.282 54.216 171.628 54.066 171.052 53.766C170.488 53.466 170.056 53.046 169.756 52.506V57.96H168.244ZM172.852 52.902C173.452 52.902 173.98 52.764 174.436 52.488C174.892 52.2 175.252 51.804 175.516 51.3C175.78 50.796 175.912 50.208 175.912 49.536C175.912 48.864 175.78 48.276 175.516 47.772C175.252 47.268 174.892 46.878 174.436 46.602C173.98 46.314 173.452 46.17 172.852 46.17C172.252 46.17 171.724 46.314 171.268 46.602C170.812 46.878 170.452 47.268 170.188 47.772C169.924 48.276 169.792 48.864 169.792 49.536C169.792 50.208 169.924 50.796 170.188 51.3C170.452 51.804 170.812 52.2 171.268 52.488C171.724 52.764 172.252 52.902 172.852 52.902ZM178.984 54V45.072H180.352L180.478 46.782C180.754 46.194 181.174 45.726 181.738 45.378C182.302 45.03 182.998 44.856 183.826 44.856V46.44H183.412C182.884 46.44 182.398 46.536 181.954 46.728C181.51 46.908 181.156 47.22 180.892 47.664C180.628 48.108 180.496 48.72 180.496 49.5V54H178.984ZM185.878 43.092C185.578 43.092 185.326 42.996 185.122 42.804C184.93 42.6 184.834 42.348 184.834 42.048C184.834 41.76 184.93 41.52 185.122 41.328C185.326 41.136 185.578 41.04 185.878 41.04C186.166 41.04 186.412 41.136 186.616 41.328C186.82 41.52 186.922 41.76 186.922 42.048C186.922 42.348 186.82 42.6 186.616 42.804C186.412 42.996 186.166 43.092 185.878 43.092ZM185.122 54V45.072H186.634V54H185.122ZM192.124 54.216C191.056 54.216 190.168 53.946 189.46 53.406C188.752 52.866 188.338 52.134 188.218 51.21H189.766C189.862 51.678 190.108 52.086 190.504 52.434C190.912 52.77 191.458 52.938 192.142 52.938C192.778 52.938 193.246 52.806 193.546 52.542C193.846 52.266 193.996 51.942 193.996 51.57C193.996 51.03 193.798 50.67 193.402 50.49C193.018 50.31 192.472 50.148 191.764 50.004C191.284 49.908 190.804 49.77 190.324 49.59C189.844 49.41 189.442 49.158 189.118 48.834C188.794 48.498 188.632 48.06 188.632 47.52C188.632 46.74 188.92 46.104 189.496 45.612C190.084 45.108 190.876 44.856 191.872 44.856C192.82 44.856 193.594 45.096 194.194 45.576C194.806 46.044 195.16 46.716 195.256 47.592H193.762C193.702 47.136 193.504 46.782 193.168 46.53C192.844 46.266 192.406 46.134 191.854 46.134C191.314 46.134 190.894 46.248 190.594 46.476C190.306 46.704 190.162 47.004 190.162 47.376C190.162 47.736 190.348 48.018 190.72 48.222C191.104 48.426 191.62 48.6 192.268 48.744C192.82 48.864 193.342 49.014 193.834 49.194C194.338 49.362 194.746 49.62 195.058 49.968C195.382 50.304 195.544 50.796 195.544 51.444C195.556 52.248 195.25 52.914 194.626 53.442C194.014 53.958 193.18 54.216 192.124 54.216ZM201.155 54.216C200.303 54.216 199.547 54.024 198.887 53.64C198.227 53.244 197.705 52.698 197.321 52.002C196.949 51.306 196.763 50.484 196.763 49.536C196.763 48.6 196.949 47.784 197.321 47.088C197.693 46.38 198.209 45.834 198.869 45.45C199.541 45.054 200.315 44.856 201.191 44.856C202.055 44.856 202.799 45.054 203.423 45.45C204.059 45.834 204.545 46.344 204.881 46.98C205.217 47.616 205.385 48.3 205.385 49.032C205.385 49.164 205.379 49.296 205.367 49.428C205.367 49.56 205.367 49.71 205.367 49.878H198.257C198.293 50.562 198.449 51.132 198.725 51.588C199.013 52.032 199.367 52.368 199.787 52.596C200.219 52.824 200.675 52.938 201.155 52.938C201.779 52.938 202.301 52.794 202.721 52.506C203.141 52.218 203.447 51.828 203.639 51.336H205.133C204.893 52.164 204.431 52.854 203.747 53.406C203.075 53.946 202.211 54.216 201.155 54.216ZM201.155 46.134C200.435 46.134 199.793 46.356 199.229 46.8C198.677 47.232 198.359 47.868 198.275 48.708H203.891C203.855 47.904 203.579 47.274 203.063 46.818C202.547 46.362 201.911 46.134 201.155 46.134Z" fill="#696871"/>
<path d="M79.183 137.22V132.6C75.303 132.16 72.143 130.8 69.703 128.52C67.263 126.24 66.003 123.18 65.923 119.34H74.023C74.103 120.94 74.583 122.34 75.463 123.54C76.383 124.74 77.623 125.56 79.183 126V113.34C78.823 113.22 78.443 113.1 78.043 112.98C77.683 112.86 77.303 112.74 76.903 112.62C73.663 111.5 71.183 110.06 69.463 108.3C67.783 106.54 66.943 104.2 66.943 101.28C66.903 97.84 68.023 95.08 70.303 93C72.583 90.88 75.543 89.66 79.183 89.34V84.48H83.203V89.4C86.803 89.76 89.703 91.02 91.903 93.18C94.143 95.3 95.323 98.04 95.443 101.4H87.223C87.183 100.24 86.803 99.18 86.083 98.22C85.403 97.22 84.443 96.52 83.203 96.12V107.28C83.523 107.4 83.843 107.52 84.163 107.64C84.483 107.72 84.803 107.82 85.123 107.94C87.203 108.66 89.103 109.5 90.823 110.46C92.543 111.42 93.923 112.7 94.963 114.3C96.003 115.86 96.523 117.88 96.523 120.36C96.523 122.44 96.003 124.38 94.963 126.18C93.963 127.98 92.463 129.48 90.463 130.68C88.503 131.84 86.083 132.5 83.203 132.66V137.22H79.183ZM74.983 100.74C74.983 102.02 75.363 103.06 76.123 103.86C76.883 104.62 77.903 105.28 79.183 105.84V95.88C77.943 96.12 76.923 96.66 76.123 97.5C75.363 98.34 74.983 99.42 74.983 100.74ZM88.363 120.9C88.363 119.3 87.883 118.04 86.923 117.12C85.963 116.2 84.723 115.42 83.203 114.78V126.18C84.803 125.94 86.063 125.36 86.983 124.44C87.903 123.52 88.363 122.34 88.363 120.9ZM121.389 132V124.2H100.689V118.08L120.369 90H129.069V117.54H134.589V124.2H129.069V132H121.389ZM108.909 117.54H121.869V98.46L108.909 117.54ZM153.932 132.72C151.012 132.72 148.552 132.16 146.552 131.04C144.552 129.88 142.992 128.38 141.872 126.54C140.752 124.7 140.092 122.72 139.892 120.6H147.032C147.352 122.44 148.112 123.86 149.312 124.86C150.552 125.86 152.112 126.36 153.992 126.36C156.672 126.36 158.832 125.14 160.472 122.7C162.112 120.22 162.992 116.46 163.112 111.42C162.152 113.06 160.692 114.42 158.732 115.5C156.812 116.58 154.692 117.12 152.372 117.12C150.052 117.12 147.872 116.56 145.832 115.44C143.792 114.32 142.132 112.74 140.852 110.7C139.572 108.66 138.932 106.26 138.932 103.5C138.932 100.98 139.552 98.64 140.792 96.48C142.032 94.32 143.752 92.58 145.952 91.26C148.152 89.94 150.732 89.28 153.692 89.28C156.852 89.28 159.512 89.86 161.672 91.02C163.832 92.18 165.552 93.74 166.832 95.7C168.152 97.66 169.092 99.84 169.652 102.24C170.252 104.64 170.552 107.1 170.552 109.62C170.552 114.3 169.892 118.38 168.572 121.86C167.292 125.3 165.392 127.98 162.872 129.9C160.392 131.78 157.412 132.72 153.932 132.72ZM154.172 110.64C155.652 110.64 156.992 110.32 158.192 109.68C159.392 109 160.332 108.12 161.012 107.04C161.692 105.92 162.032 104.68 162.032 103.32C162.032 101.16 161.272 99.38 159.752 97.98C158.272 96.58 156.392 95.88 154.112 95.88C151.872 95.88 150.012 96.58 148.532 97.98C147.052 99.34 146.312 101.08 146.312 103.2C146.312 105.44 147.052 107.24 148.532 108.6C150.012 109.96 151.892 110.64 154.172 110.64ZM173.149 135.108L180.149 110.244H183.649L176.621 135.108H173.149ZM184.556 132V118.112H187.72L188.028 119.988C188.476 119.316 189.064 118.784 189.792 118.392C190.539 117.981 191.398 117.776 192.368 117.776C194.515 117.776 196.036 118.607 196.932 120.268C197.436 119.503 198.108 118.896 198.948 118.448C199.807 118 200.74 117.776 201.748 117.776C203.559 117.776 204.95 118.317 205.92 119.4C206.891 120.483 207.376 122.069 207.376 124.16V132H203.792V124.496C203.792 123.301 203.559 122.387 203.092 121.752C202.644 121.117 201.944 120.8 200.992 120.8C200.022 120.8 199.238 121.155 198.64 121.864C198.062 122.573 197.772 123.563 197.772 124.832V132H194.188V124.496C194.188 123.301 193.955 122.387 193.488 121.752C193.022 121.117 192.303 120.8 191.332 120.8C190.38 120.8 189.606 121.155 189.008 121.864C188.43 122.573 188.14 123.563 188.14 124.832V132H184.556ZM216.408 132.336C215.064 132.336 213.851 132.028 212.768 131.412C211.704 130.796 210.855 129.947 210.22 128.864C209.604 127.763 209.296 126.493 209.296 125.056C209.296 123.619 209.614 122.359 210.248 121.276C210.883 120.175 211.732 119.316 212.796 118.7C213.879 118.084 215.092 117.776 216.437 117.776C217.762 117.776 218.957 118.084 220.02 118.7C221.103 119.316 221.952 120.175 222.568 121.276C223.203 122.359 223.521 123.619 223.521 125.056C223.521 126.493 223.203 127.763 222.568 128.864C221.952 129.947 221.103 130.796 220.02 131.412C218.938 132.028 217.734 132.336 216.408 132.336ZM216.408 129.228C217.342 129.228 218.154 128.883 218.844 128.192C219.535 127.483 219.88 126.437 219.88 125.056C219.88 123.675 219.535 122.639 218.844 121.948C218.154 121.239 217.351 120.884 216.437 120.884C215.485 120.884 214.663 121.239 213.972 121.948C213.3 122.639 212.964 123.675 212.964 125.056C212.964 126.437 213.3 127.483 213.972 128.192C214.663 128.883 215.475 129.228 216.408 129.228ZM225.69 132V118.112H228.854L229.134 120.464C229.564 119.643 230.18 118.989 230.982 118.504C231.804 118.019 232.765 117.776 233.866 117.776C235.584 117.776 236.918 118.317 237.87 119.4C238.822 120.483 239.298 122.069 239.298 124.16V132H235.714V124.496C235.714 123.301 235.472 122.387 234.986 121.752C234.501 121.117 233.745 120.8 232.718 120.8C231.71 120.8 230.88 121.155 230.226 121.864C229.592 122.573 229.274 123.563 229.274 124.832V132H225.69ZM247.879 132C246.423 132 245.256 131.645 244.379 130.936C243.502 130.227 243.063 128.967 243.063 127.156V121.108H240.683V118.112H243.063L243.483 114.388H246.647V118.112H250.399V121.108H246.647V127.184C246.647 127.856 246.787 128.323 247.067 128.584C247.366 128.827 247.87 128.948 248.579 128.948H250.315V132H247.879ZM252.442 132V111.84H256.026V120.24C256.492 119.475 257.118 118.877 257.902 118.448C258.704 118 259.619 117.776 260.646 117.776C262.363 117.776 263.688 118.317 264.622 119.4C265.574 120.483 266.05 122.069 266.05 124.16V132H262.494V124.496C262.494 123.301 262.251 122.387 261.766 121.752C261.299 121.117 260.552 120.8 259.526 120.8C258.518 120.8 257.678 121.155 257.006 121.864C256.352 122.573 256.026 123.563 256.026 124.832V132H252.442Z" fill="#1D293F"/>
<path d="M103.299 199.136C101.712 199.136 100.511 198.728 99.6945 197.912C98.8898 197.085 98.4875 195.866 98.4875 194.257V186.896H99.8645V194.376C99.8645 195.555 100.154 196.444 100.731 197.045C101.309 197.646 102.165 197.946 103.299 197.946C104.421 197.946 105.265 197.646 105.832 197.045C106.41 196.444 106.699 195.555 106.699 194.376V186.896H108.092V194.257C108.092 195.855 107.685 197.068 106.869 197.895C106.053 198.722 104.863 199.136 103.299 199.136ZM114.573 190.245C116.624 190.245 117.65 191.373 117.65 193.628V199H116.273V193.696C116.273 192.903 116.114 192.325 115.797 191.962C115.479 191.588 114.981 191.401 114.301 191.401C113.507 191.401 112.873 191.645 112.397 192.132C111.921 192.619 111.683 193.277 111.683 194.104V199H110.306V192.846C110.306 191.962 110.26 191.163 110.17 190.449H111.479L111.615 191.979C111.875 191.424 112.266 190.999 112.788 190.704C113.309 190.398 113.904 190.245 114.573 190.245ZM119.718 186.488H121.095V199H119.718V186.488ZM123.238 190.449H124.615V199H123.238V190.449ZM124.785 186.828V188.392H123.102V186.828H124.785ZM136.243 190.245C138.136 190.245 139.082 191.373 139.082 193.628V199H137.705V193.696C137.705 192.891 137.563 192.308 137.28 191.945C137.008 191.582 136.56 191.401 135.937 191.401C135.212 191.401 134.645 191.645 134.237 192.132C133.829 192.619 133.625 193.282 133.625 194.121V199H132.248V193.696C132.248 192.903 132.106 192.325 131.823 191.962C131.54 191.588 131.086 191.401 130.463 191.401C129.738 191.401 129.165 191.645 128.746 192.132C128.338 192.619 128.134 193.282 128.134 194.121V199H126.757V192.846C126.757 191.962 126.712 191.163 126.621 190.449H127.93L128.066 191.945C128.304 191.401 128.655 190.982 129.12 190.687C129.596 190.392 130.146 190.245 130.769 190.245C131.449 190.245 132.004 190.381 132.435 190.653C132.866 190.925 133.183 191.344 133.387 191.911C133.648 191.401 134.027 190.999 134.526 190.704C135.036 190.398 135.608 190.245 136.243 190.245ZM141.167 190.449H142.544V199H141.167V190.449ZM142.714 186.828V188.392H141.031V186.828H142.714ZM146.522 191.537V196.212C146.522 196.847 146.653 197.294 146.913 197.555C147.174 197.804 147.542 197.929 148.018 197.929C148.336 197.929 148.642 197.878 148.936 197.776V198.949C148.585 199.062 148.188 199.119 147.746 199.119C146.93 199.119 146.29 198.892 145.825 198.439C145.372 197.974 145.145 197.294 145.145 196.399V191.537H143.479V190.449H145.145V188.256L146.522 187.763V190.449H148.97V191.537H146.522ZM157.255 194.682H150.982C150.994 195.77 151.243 196.592 151.73 197.147C152.229 197.702 152.949 197.98 153.889 197.98C154.887 197.98 155.805 197.646 156.643 196.977L157.102 197.98C156.728 198.331 156.247 198.609 155.657 198.813C155.079 199.017 154.484 199.119 153.872 199.119C152.535 199.119 151.487 198.728 150.727 197.946C149.968 197.153 149.588 196.07 149.588 194.699C149.588 193.826 149.758 193.056 150.098 192.387C150.438 191.707 150.914 191.18 151.526 190.806C152.138 190.432 152.835 190.245 153.617 190.245C154.751 190.245 155.64 190.619 156.286 191.367C156.932 192.104 157.255 193.124 157.255 194.427V194.682ZM153.634 191.316C152.92 191.316 152.337 191.531 151.883 191.962C151.441 192.393 151.158 192.999 151.033 193.781H156.014C155.946 192.976 155.708 192.364 155.3 191.945C154.904 191.526 154.348 191.316 153.634 191.316ZM166.345 186.488V199H164.985V197.453C164.735 197.986 164.356 198.399 163.846 198.694C163.347 198.977 162.763 199.119 162.095 199.119C161.347 199.119 160.684 198.932 160.106 198.558C159.539 198.184 159.097 197.663 158.78 196.994C158.462 196.314 158.304 195.532 158.304 194.648C158.304 193.764 158.457 192.993 158.763 192.336C159.08 191.667 159.528 191.152 160.106 190.789C160.684 190.426 161.347 190.245 162.095 190.245C162.763 190.245 163.347 190.392 163.846 190.687C164.344 190.97 164.718 191.373 164.968 191.894V186.488H166.345ZM162.367 197.98C163.205 197.98 163.851 197.697 164.305 197.13C164.758 196.552 164.985 195.736 164.985 194.682C164.985 193.639 164.758 192.835 164.305 192.268C163.851 191.69 163.205 191.401 162.367 191.401C161.528 191.401 160.871 191.684 160.395 192.251C159.93 192.818 159.698 193.617 159.698 194.648C159.698 195.702 159.93 196.524 160.395 197.113C160.871 197.691 161.528 197.98 162.367 197.98ZM189.377 186.896L185.144 199H183.954L180.503 189.089L177.035 199H175.862L171.612 186.896H173.04L176.474 197.011L179.993 186.896L181.064 186.913L184.532 197.045L188 186.896H189.377ZM196.949 194.682H190.676C190.687 195.77 190.936 196.592 191.424 197.147C191.922 197.702 192.642 197.98 193.583 197.98C194.58 197.98 195.498 197.646 196.337 196.977L196.796 197.98C196.422 198.331 195.94 198.609 195.351 198.813C194.773 199.017 194.178 199.119 193.566 199.119C192.228 199.119 191.18 198.728 190.421 197.946C189.661 197.153 189.282 196.07 189.282 194.699C189.282 193.826 189.452 193.056 189.792 192.387C190.132 191.707 190.608 191.18 191.22 190.806C191.832 190.432 192.529 190.245 193.311 190.245C194.444 190.245 195.334 190.619 195.98 191.367C196.626 192.104 196.949 193.124 196.949 194.427V194.682ZM193.328 191.316C192.614 191.316 192.03 191.531 191.577 191.962C191.135 192.393 190.851 192.999 190.727 193.781H195.708C195.64 192.976 195.402 192.364 194.994 191.945C194.597 191.526 194.042 191.316 193.328 191.316ZM202.774 190.245C203.522 190.245 204.185 190.426 204.763 190.789C205.341 191.152 205.789 191.667 206.106 192.336C206.424 192.993 206.582 193.764 206.582 194.648C206.582 195.532 206.424 196.314 206.106 196.994C205.789 197.663 205.341 198.184 204.763 198.558C204.185 198.932 203.522 199.119 202.774 199.119C202.106 199.119 201.522 198.972 201.023 198.677C200.525 198.382 200.145 197.963 199.884 197.419V199H198.507V186.488H199.884V191.962C200.134 191.407 200.508 190.982 201.006 190.687C201.516 190.392 202.106 190.245 202.774 190.245ZM202.519 197.98C203.347 197.98 203.993 197.691 204.457 197.113C204.922 196.524 205.154 195.702 205.154 194.648C205.154 193.617 204.922 192.818 204.457 192.251C204.004 191.684 203.358 191.401 202.519 191.401C201.669 191.401 201.018 191.684 200.564 192.251C200.111 192.818 199.884 193.628 199.884 194.682C199.884 195.736 200.111 196.552 200.564 197.13C201.018 197.697 201.669 197.98 202.519 197.98ZM211.059 199.119C209.62 199.119 208.481 198.751 207.642 198.014L208.101 196.994C208.566 197.357 209.036 197.617 209.512 197.776C209.988 197.935 210.521 198.014 211.11 198.014C211.756 198.014 212.243 197.906 212.572 197.691C212.912 197.464 213.082 197.141 213.082 196.722C213.082 196.382 212.969 196.11 212.742 195.906C212.515 195.702 212.141 195.543 211.62 195.43L210.175 195.09C209.461 194.931 208.906 194.648 208.509 194.24C208.124 193.832 207.931 193.345 207.931 192.778C207.931 192.03 208.231 191.424 208.832 190.959C209.433 190.483 210.226 190.245 211.212 190.245C211.813 190.245 212.379 190.341 212.912 190.534C213.445 190.727 213.892 191.004 214.255 191.367L213.796 192.37C212.991 191.701 212.13 191.367 211.212 191.367C210.6 191.367 210.124 191.486 209.784 191.724C209.455 191.951 209.291 192.274 209.291 192.693C209.291 193.044 209.393 193.322 209.597 193.526C209.812 193.73 210.152 193.889 210.617 194.002L212.062 194.359C212.855 194.54 213.445 194.824 213.83 195.209C214.215 195.583 214.408 196.076 214.408 196.688C214.408 197.425 214.108 198.014 213.507 198.456C212.906 198.898 212.09 199.119 211.059 199.119ZM216.071 190.449H217.448V199H216.071V190.449ZM217.618 186.828V188.392H215.935V186.828H217.618ZM221.427 191.537V196.212C221.427 196.847 221.557 197.294 221.818 197.555C222.078 197.804 222.447 197.929 222.923 197.929C223.24 197.929 223.546 197.878 223.841 197.776V198.949C223.489 199.062 223.093 199.119 222.651 199.119C221.835 199.119 221.194 198.892 220.73 198.439C220.276 197.974 220.05 197.294 220.05 196.399V191.537H218.384V190.449H220.05V188.256L221.427 187.763V190.449H223.875V191.537H221.427ZM232.159 194.682H225.886C225.898 195.77 226.147 196.592 226.634 197.147C227.133 197.702 227.853 197.98 228.793 197.98C229.791 197.98 230.709 197.646 231.547 196.977L232.006 197.98C231.632 198.331 231.151 198.609 230.561 198.813C229.983 199.017 229.388 199.119 228.776 199.119C227.439 199.119 226.391 198.728 225.631 197.946C224.872 197.153 224.492 196.07 224.492 194.699C224.492 193.826 224.662 193.056 225.002 192.387C225.342 191.707 225.818 191.18 226.43 190.806C227.042 190.432 227.739 190.245 228.521 190.245C229.655 190.245 230.544 190.619 231.19 191.367C231.836 192.104 232.159 193.124 232.159 194.427V194.682ZM228.538 191.316C227.824 191.316 227.241 191.531 226.787 191.962C226.345 192.393 226.062 192.999 225.937 193.781H230.918C230.85 192.976 230.612 192.364 230.204 191.945C229.808 191.526 229.252 191.316 228.538 191.316ZM116.523 241.401C117.283 241.401 117.946 241.565 118.512 241.894C119.09 242.211 119.532 242.659 119.838 243.237C120.144 243.815 120.297 244.484 120.297 245.243C120.297 246.002 120.127 246.677 119.787 247.266C119.459 247.855 118.983 248.314 118.359 248.643C117.747 248.96 117.028 249.119 116.2 249.119C115.464 249.119 114.738 248.989 114.024 248.728C113.31 248.456 112.71 248.088 112.222 247.623L112.749 246.552C113.871 247.481 115.022 247.946 116.2 247.946C117.05 247.946 117.713 247.708 118.189 247.232C118.677 246.745 118.92 246.087 118.92 245.26C118.92 244.455 118.682 243.809 118.206 243.322C117.73 242.823 117.096 242.574 116.302 242.574C115.146 242.574 114.223 243.044 113.531 243.985H112.562V236.896H119.821V238.052H113.956V242.37C114.625 241.724 115.481 241.401 116.523 241.401ZM125.675 249.136C124.293 249.136 123.239 248.615 122.513 247.572C121.799 246.518 121.442 244.977 121.442 242.948C121.442 240.919 121.799 239.384 122.513 238.341C123.239 237.287 124.293 236.76 125.675 236.76C127.058 236.76 128.106 237.287 128.82 238.341C129.546 239.384 129.908 240.914 129.908 242.931C129.908 244.96 129.546 246.501 128.82 247.555C128.106 248.609 127.058 249.136 125.675 249.136ZM125.675 247.963C126.639 247.963 127.347 247.555 127.8 246.739C128.265 245.923 128.497 244.654 128.497 242.931C128.497 241.22 128.271 239.962 127.817 239.157C127.364 238.352 126.65 237.95 125.675 237.95C124.712 237.95 123.998 238.352 123.533 239.157C123.08 239.962 122.853 241.22 122.853 242.931C122.853 244.642 123.08 245.912 123.533 246.739C123.998 247.555 124.712 247.963 125.675 247.963ZM145.205 242.693V248.303C144.729 248.552 144.106 248.756 143.335 248.915C142.565 249.062 141.783 249.136 140.989 249.136C139.788 249.136 138.751 248.892 137.878 248.405C137.006 247.906 136.337 247.192 135.872 246.263C135.419 245.334 135.192 244.223 135.192 242.931C135.192 241.65 135.419 240.551 135.872 239.633C136.337 238.704 136.994 237.995 137.844 237.508C138.706 237.009 139.72 236.76 140.887 236.76C141.737 236.76 142.514 236.89 143.216 237.151C143.93 237.4 144.542 237.78 145.052 238.29L144.508 239.361C143.919 238.862 143.341 238.505 142.774 238.29C142.219 238.063 141.59 237.95 140.887 237.95C139.516 237.95 138.462 238.381 137.725 239.242C137 240.092 136.637 241.322 136.637 242.931C136.637 244.574 137.011 245.827 137.759 246.688C138.507 247.538 139.595 247.963 141.023 247.963C142.032 247.963 143.001 247.804 143.93 247.487V243.798H140.921V242.693H145.205ZM154.405 242.778C155.097 242.971 155.635 243.322 156.02 243.832C156.406 244.331 156.598 244.954 156.598 245.702C156.598 246.756 156.247 247.572 155.544 248.15C154.842 248.717 153.85 249 152.569 249H147.537V236.896H152.399C153.635 236.896 154.592 237.174 155.272 237.729C155.964 238.273 156.309 239.049 156.309 240.058C156.309 240.704 156.139 241.265 155.799 241.741C155.471 242.206 155.006 242.551 154.405 242.778ZM148.914 242.268H152.178C153.085 242.268 153.771 242.087 154.235 241.724C154.7 241.361 154.932 240.829 154.932 240.126C154.932 238.743 154.014 238.052 152.178 238.052H148.914V242.268ZM152.45 247.844C153.402 247.844 154.099 247.668 154.541 247.317C154.995 246.954 155.221 246.405 155.221 245.668C155.221 244.183 154.298 243.441 152.45 243.441H148.914V247.844H152.45ZM172.508 236.896V249H171.114V243.441H163.855V249H162.478V236.896H163.855V242.268H171.114V236.896H172.508ZM178.329 249.119C177.524 249.119 176.816 248.938 176.204 248.575C175.592 248.212 175.116 247.697 174.776 247.028C174.447 246.359 174.283 245.577 174.283 244.682C174.283 243.787 174.447 243.005 174.776 242.336C175.116 241.667 175.592 241.152 176.204 240.789C176.816 240.426 177.524 240.245 178.329 240.245C179.133 240.245 179.842 240.426 180.454 240.789C181.066 241.152 181.536 241.667 181.865 242.336C182.205 243.005 182.375 243.787 182.375 244.682C182.375 245.577 182.205 246.359 181.865 247.028C181.536 247.697 181.066 248.212 180.454 248.575C179.842 248.938 179.133 249.119 178.329 249.119ZM178.329 247.98C179.179 247.98 179.83 247.702 180.284 247.147C180.737 246.58 180.964 245.759 180.964 244.682C180.964 243.639 180.731 242.835 180.267 242.268C179.802 241.69 179.156 241.401 178.329 241.401C177.49 241.401 176.838 241.69 176.374 242.268C175.909 242.835 175.677 243.639 175.677 244.682C175.677 245.759 175.903 246.58 176.357 247.147C176.821 247.702 177.479 247.98 178.329 247.98ZM186.88 249.119C185.44 249.119 184.301 248.751 183.463 248.014L183.922 246.994C184.386 247.357 184.857 247.617 185.333 247.776C185.809 247.935 186.341 248.014 186.931 248.014C187.577 248.014 188.064 247.906 188.393 247.691C188.733 247.464 188.903 247.141 188.903 246.722C188.903 246.382 188.789 246.11 188.563 245.906C188.336 245.702 187.962 245.543 187.441 245.43L185.996 245.09C185.282 244.931 184.726 244.648 184.33 244.24C183.944 243.832 183.752 243.345 183.752 242.778C183.752 242.03 184.052 241.424 184.653 240.959C185.253 240.483 186.047 240.245 187.033 240.245C187.633 240.245 188.2 240.341 188.733 240.534C189.265 240.727 189.713 241.004 190.076 241.367L189.617 242.37C188.812 241.701 187.951 241.367 187.033 241.367C186.421 241.367 185.945 241.486 185.605 241.724C185.276 241.951 185.112 242.274 185.112 242.693C185.112 243.044 185.214 243.322 185.418 243.526C185.633 243.73 185.973 243.889 186.438 244.002L187.883 244.359C188.676 244.54 189.265 244.824 189.651 245.209C190.036 245.583 190.229 246.076 190.229 246.688C190.229 247.425 189.928 248.014 189.328 248.456C188.727 248.898 187.911 249.119 186.88 249.119ZM193.645 241.537V246.212C193.645 246.847 193.775 247.294 194.036 247.555C194.296 247.804 194.665 247.929 195.141 247.929C195.458 247.929 195.764 247.878 196.059 247.776V248.949C195.707 249.062 195.311 249.119 194.869 249.119C194.053 249.119 193.412 248.892 192.948 248.439C192.494 247.974 192.268 247.294 192.268 246.399V241.537H190.602V240.449H192.268V238.256L193.645 237.763V240.449H196.093V241.537H193.645ZM197.221 240.449H198.598V249H197.221V240.449ZM198.768 236.828V238.392H197.085V236.828H198.768ZM205.007 240.245C207.058 240.245 208.084 241.373 208.084 243.628V249H206.707V243.696C206.707 242.903 206.548 242.325 206.231 241.962C205.914 241.588 205.415 241.401 204.735 241.401C203.942 241.401 203.307 241.645 202.831 242.132C202.355 242.619 202.117 243.277 202.117 244.104V249H200.74V242.846C200.74 241.962 200.695 241.163 200.604 240.449H201.913L202.049 241.979C202.31 241.424 202.701 240.999 203.222 240.704C203.743 240.398 204.338 240.245 205.007 240.245ZM217.769 240.449V248.932C217.769 250.201 217.44 251.159 216.783 251.805C216.137 252.462 215.179 252.791 213.91 252.791C212.606 252.791 211.484 252.496 210.544 251.907L210.782 250.785C211.326 251.091 211.836 251.312 212.312 251.448C212.799 251.584 213.332 251.652 213.91 251.652C214.737 251.652 215.36 251.431 215.78 250.989C216.199 250.558 216.409 249.912 216.409 249.051V247.028C216.148 247.572 215.763 247.997 215.253 248.303C214.754 248.598 214.159 248.745 213.468 248.745C212.72 248.745 212.051 248.569 211.462 248.218C210.884 247.867 210.436 247.368 210.119 246.722C209.801 246.076 209.643 245.334 209.643 244.495C209.643 243.656 209.801 242.914 210.119 242.268C210.436 241.622 210.884 241.123 211.462 240.772C212.051 240.421 212.72 240.245 213.468 240.245C214.148 240.245 214.737 240.392 215.236 240.687C215.746 240.982 216.131 241.395 216.392 241.928V240.449H217.769ZM213.74 247.589C214.567 247.589 215.213 247.317 215.678 246.773C216.154 246.218 216.392 245.458 216.392 244.495C216.392 243.532 216.154 242.778 215.678 242.234C215.213 241.679 214.567 241.401 213.74 241.401C212.901 241.401 212.238 241.679 211.751 242.234C211.275 242.778 211.037 243.532 211.037 244.495C211.037 245.458 211.275 246.218 211.751 246.773C212.238 247.317 212.901 247.589 213.74 247.589ZM101.411 286.896H106.239C107.486 286.896 108.455 287.196 109.146 287.797C109.849 288.398 110.2 289.225 110.2 290.279C110.2 291.333 109.849 292.166 109.146 292.778C108.443 293.379 107.474 293.679 106.239 293.679H102.805V299H101.411V286.896ZM106.12 292.523C107.015 292.523 107.69 292.33 108.143 291.945C108.596 291.56 108.823 291.004 108.823 290.279C108.823 289.554 108.596 289.004 108.143 288.63C107.69 288.245 107.015 288.052 106.12 288.052H102.805V292.523H106.12ZM115.595 290.245C115.878 290.245 116.139 290.279 116.377 290.347L116.343 291.605C116.082 291.514 115.782 291.469 115.442 291.469C114.615 291.469 113.997 291.73 113.589 292.251C113.192 292.761 112.994 293.384 112.994 294.121V299H111.617V292.846C111.617 291.962 111.572 291.163 111.481 290.449H112.79L112.926 292.03C113.141 291.452 113.487 291.01 113.963 290.704C114.439 290.398 114.983 290.245 115.595 290.245ZM124.236 294.682H117.963C117.974 295.77 118.223 296.592 118.711 297.147C119.209 297.702 119.929 297.98 120.87 297.98C121.867 297.98 122.785 297.646 123.624 296.977L124.083 297.98C123.709 298.331 123.227 298.609 122.638 298.813C122.06 299.017 121.465 299.119 120.853 299.119C119.515 299.119 118.467 298.728 117.708 297.946C116.948 297.153 116.569 296.07 116.569 294.699C116.569 293.826 116.739 293.056 117.079 292.387C117.419 291.707 117.895 291.18 118.507 290.806C119.119 290.432 119.816 290.245 120.598 290.245C121.731 290.245 122.621 290.619 123.267 291.367C123.913 292.104 124.236 293.124 124.236 294.427V294.682ZM120.615 291.316C119.901 291.316 119.317 291.531 118.864 291.962C118.422 292.393 118.138 292.999 118.014 293.781H122.995C122.927 292.976 122.689 292.364 122.281 291.945C121.884 291.526 121.329 291.316 120.615 291.316ZM135.28 290.245C137.173 290.245 138.119 291.373 138.119 293.628V299H136.742V293.696C136.742 292.891 136.601 292.308 136.317 291.945C136.045 291.582 135.598 291.401 134.974 291.401C134.249 291.401 133.682 291.645 133.274 292.132C132.866 292.619 132.662 293.282 132.662 294.121V299H131.285V293.696C131.285 292.903 131.144 292.325 130.86 291.962C130.577 291.588 130.124 291.401 129.5 291.401C128.775 291.401 128.203 291.645 127.783 292.132C127.375 292.619 127.171 293.282 127.171 294.121V299H125.794V292.846C125.794 291.962 125.749 291.163 125.658 290.449H126.967L127.103 291.945C127.341 291.401 127.693 290.982 128.157 290.687C128.633 290.392 129.183 290.245 129.806 290.245C130.486 290.245 131.042 290.381 131.472 290.653C131.903 290.925 132.22 291.344 132.424 291.911C132.685 291.401 133.065 290.999 133.563 290.704C134.073 290.398 134.646 290.245 135.28 290.245ZM140.204 290.449H141.581V299H140.204V290.449ZM141.751 286.828V288.392H140.068V286.828H141.751ZM150.88 290.449V299H149.537V297.521C149.265 298.042 148.886 298.439 148.398 298.711C147.911 298.983 147.361 299.119 146.749 299.119C145.741 299.119 144.976 298.836 144.454 298.269C143.933 297.702 143.672 296.864 143.672 295.753V290.449H145.049V295.719C145.049 296.49 145.208 297.056 145.525 297.419C145.843 297.782 146.324 297.963 146.97 297.963C147.73 297.963 148.342 297.719 148.806 297.232C149.271 296.733 149.503 296.082 149.503 295.277V290.449H150.88ZM162.489 290.245C164.382 290.245 165.328 291.373 165.328 293.628V299H163.951V293.696C163.951 292.891 163.81 292.308 163.526 291.945C163.254 291.582 162.807 291.401 162.183 291.401C161.458 291.401 160.891 291.645 160.483 292.132C160.075 292.619 159.871 293.282 159.871 294.121V299H158.494V293.696C158.494 292.903 158.353 292.325 158.069 291.962C157.786 291.588 157.333 291.401 156.709 291.401C155.984 291.401 155.412 291.645 154.992 292.132C154.584 292.619 154.38 293.282 154.38 294.121V299H153.003V292.846C153.003 291.962 152.958 291.163 152.867 290.449H154.176L154.312 291.945C154.55 291.401 154.902 290.982 155.366 290.687C155.842 290.392 156.392 290.245 157.015 290.245C157.695 290.245 158.251 290.381 158.681 290.653C159.112 290.925 159.429 291.344 159.633 291.911C159.894 291.401 160.274 290.999 160.772 290.704C161.282 290.398 161.855 290.245 162.489 290.245ZM175.327 299.136C173.434 299.136 171.927 298.626 170.805 297.606L171.332 296.535C171.932 297.045 172.544 297.408 173.168 297.623C173.791 297.838 174.516 297.946 175.344 297.946C176.318 297.946 177.066 297.759 177.588 297.385C178.12 297 178.387 296.461 178.387 295.77C178.387 295.362 178.256 295.033 177.996 294.784C177.746 294.523 177.412 294.319 176.993 294.172C176.585 294.025 176.035 293.872 175.344 293.713C174.414 293.509 173.649 293.288 173.049 293.05C172.448 292.812 171.961 292.472 171.587 292.03C171.213 291.577 171.026 290.987 171.026 290.262C171.026 289.571 171.207 288.964 171.57 288.443C171.932 287.91 172.442 287.497 173.1 287.202C173.768 286.907 174.545 286.76 175.429 286.76C176.267 286.76 177.049 286.89 177.775 287.151C178.5 287.412 179.112 287.791 179.611 288.29L179.067 289.361C178.5 288.874 177.922 288.517 177.333 288.29C176.755 288.063 176.12 287.95 175.429 287.95C174.488 287.95 173.751 288.154 173.219 288.562C172.686 288.959 172.42 289.508 172.42 290.211C172.42 290.823 172.652 291.282 173.117 291.588C173.581 291.894 174.295 292.16 175.259 292.387C176.301 292.636 177.117 292.869 177.707 293.084C178.307 293.288 178.806 293.605 179.203 294.036C179.599 294.455 179.798 295.016 179.798 295.719C179.798 296.399 179.616 297 179.254 297.521C178.891 298.031 178.37 298.428 177.69 298.711C177.021 298.994 176.233 299.136 175.327 299.136ZM188.532 290.449V299H187.189V297.521C186.917 298.042 186.537 298.439 186.05 298.711C185.563 298.983 185.013 299.119 184.401 299.119C183.392 299.119 182.627 298.836 182.106 298.269C181.585 297.702 181.324 296.864 181.324 295.753V290.449H182.701V295.719C182.701 296.49 182.86 297.056 183.177 297.419C183.494 297.782 183.976 297.963 184.622 297.963C185.381 297.963 185.993 297.719 186.458 297.232C186.923 296.733 187.155 296.082 187.155 295.277V290.449H188.532ZM194.922 290.245C195.67 290.245 196.333 290.432 196.911 290.806C197.489 291.18 197.937 291.707 198.254 292.387C198.571 293.056 198.73 293.832 198.73 294.716C198.73 295.6 198.571 296.376 198.254 297.045C197.937 297.702 197.489 298.212 196.911 298.575C196.344 298.938 195.681 299.119 194.922 299.119C194.253 299.119 193.67 298.972 193.171 298.677C192.672 298.382 192.293 297.963 192.032 297.419V302.672H190.655V292.846C190.655 291.962 190.61 291.163 190.519 290.449H191.828L191.964 292.098C192.202 291.509 192.576 291.055 193.086 290.738C193.607 290.409 194.219 290.245 194.922 290.245ZM194.667 297.98C195.506 297.98 196.152 297.697 196.605 297.13C197.07 296.563 197.302 295.759 197.302 294.716C197.302 293.673 197.07 292.863 196.605 292.285C196.14 291.696 195.494 291.401 194.667 291.401C193.817 291.401 193.165 291.684 192.712 292.251C192.259 292.818 192.032 293.628 192.032 294.682C192.032 295.736 192.259 296.552 192.712 297.13C193.165 297.697 193.817 297.98 194.667 297.98ZM204.584 290.245C205.332 290.245 205.995 290.432 206.573 290.806C207.151 291.18 207.598 291.707 207.916 292.387C208.233 293.056 208.392 293.832 208.392 294.716C208.392 295.6 208.233 296.376 207.916 297.045C207.598 297.702 207.151 298.212 206.573 298.575C206.006 298.938 205.343 299.119 204.584 299.119C203.915 299.119 203.331 298.972 202.833 298.677C202.334 298.382 201.954 297.963 201.694 297.419V302.672H200.317V292.846C200.317 291.962 200.271 291.163 200.181 290.449H201.49L201.626 292.098C201.864 291.509 202.238 291.055 202.748 290.738C203.269 290.409 203.881 290.245 204.584 290.245ZM204.329 297.98C205.167 297.98 205.813 297.697 206.267 297.13C206.731 296.563 206.964 295.759 206.964 294.716C206.964 293.673 206.731 292.863 206.267 292.285C205.802 291.696 205.156 291.401 204.329 291.401C203.479 291.401 202.827 291.684 202.374 292.251C201.92 292.818 201.694 293.628 201.694 294.682C201.694 295.736 201.92 296.552 202.374 297.13C202.827 297.697 203.479 297.98 204.329 297.98ZM213.515 299.119C212.71 299.119 212.002 298.938 211.39 298.575C210.778 298.212 210.302 297.697 209.962 297.028C209.633 296.359 209.469 295.577 209.469 294.682C209.469 293.787 209.633 293.005 209.962 292.336C210.302 291.667 210.778 291.152 211.39 290.789C212.002 290.426 212.71 290.245 213.515 290.245C214.319 290.245 215.028 290.426 215.64 290.789C216.252 291.152 216.722 291.667 217.051 292.336C217.391 293.005 217.561 293.787 217.561 294.682C217.561 295.577 217.391 296.359 217.051 297.028C216.722 297.697 216.252 298.212 215.64 298.575C215.028 298.938 214.319 299.119 213.515 299.119ZM213.515 297.98C214.365 297.98 215.016 297.702 215.47 297.147C215.923 296.58 216.15 295.759 216.15 294.682C216.15 293.639 215.917 292.835 215.453 292.268C214.988 291.69 214.342 291.401 213.515 291.401C212.676 291.401 212.024 291.69 211.56 292.268C211.095 292.835 210.863 293.639 210.863 294.682C210.863 295.759 211.089 296.58 211.543 297.147C212.007 297.702 212.665 297.98 213.515 297.98ZM223.154 290.245C223.437 290.245 223.698 290.279 223.936 290.347L223.902 291.605C223.641 291.514 223.341 291.469 223.001 291.469C222.173 291.469 221.556 291.73 221.148 292.251C220.751 292.761 220.553 293.384 220.553 294.121V299H219.176V292.846C219.176 291.962 219.13 291.163 219.04 290.449H220.349L220.485 292.03C220.7 291.452 221.046 291.01 221.522 290.704C221.998 290.398 222.542 290.245 223.154 290.245ZM227.303 291.537V296.212C227.303 296.847 227.434 297.294 227.694 297.555C227.955 297.804 228.323 297.929 228.799 297.929C229.117 297.929 229.423 297.878 229.717 297.776V298.949C229.366 299.062 228.969 299.119 228.527 299.119C227.711 299.119 227.071 298.892 226.606 298.439C226.153 297.974 225.926 297.294 225.926 296.399V291.537H224.26V290.449H225.926V288.256L227.303 287.763V290.449H229.751V291.537H227.303Z" fill="#696871"/>
</g>
<defs>
<clipPath id="clip0_1_21">
<rect width="330" height="441" fill="white"/>
</clipPath>
<clipPath id="clip1_1_21">
<rect width="285" height="60" fill="white" transform="translate(24 354)"/>
</clipPath>
</defs>
</svg>
