<svg width="376" height="473" viewBox="0 0 376 473" fill="none" xmlns="http://www.w3.org/2000/svg">
<g clip-path="url(#clip0_1_12)">
<g filter="url(#filter0_d_1_12)">
<rect width="376" height="473" rx="10" fill="#FF7143"/>
</g>
<mask id="mask0_1_12" style="mask-type:luminance" maskUnits="userSpaceOnUse" x="0" y="0" width="376" height="473">
<rect width="376" height="473" rx="10" fill="white"/>
</mask>
<g mask="url(#mask0_1_12)">
</g>
<g clip-path="url(#clip1_1_12)">
<rect x="37" y="370" width="305" height="60" rx="10" fill="#9F3919"/>
<path d="M150.313 406.204C149.191 406.204 148.21 405.949 147.372 405.439C146.533 404.929 145.881 404.221 145.417 403.314C144.952 402.396 144.72 401.331 144.72 400.118C144.72 398.894 144.958 397.817 145.434 396.888C145.921 395.947 146.607 395.216 147.491 394.695C148.386 394.162 149.446 393.896 150.67 393.896C152.064 393.896 153.22 394.23 154.138 394.899C155.056 395.568 155.651 396.491 155.923 397.67H153.492C153.31 397.115 152.982 396.684 152.506 396.378C152.03 396.061 151.418 395.902 150.67 395.902C149.48 395.902 148.562 396.282 147.916 397.041C147.27 397.789 146.947 398.82 146.947 400.135C146.947 401.45 147.264 402.47 147.899 403.195C148.545 403.909 149.417 404.266 150.517 404.266C151.593 404.266 152.404 403.977 152.948 403.399C153.503 402.81 153.837 402.039 153.951 401.087H150.942V399.455H156.144V406H154.138L153.968 404.436C153.582 405.003 153.101 405.439 152.523 405.745C151.945 406.051 151.208 406.204 150.313 406.204ZM161.774 406.204C160.924 406.204 160.17 406.023 159.513 405.66C158.855 405.297 158.34 404.787 157.966 404.13C157.592 403.473 157.405 402.713 157.405 401.852C157.405 400.979 157.586 400.203 157.949 399.523C158.323 398.843 158.833 398.316 159.479 397.942C160.136 397.557 160.907 397.364 161.791 397.364C162.618 397.364 163.349 397.545 163.984 397.908C164.618 398.271 165.111 398.769 165.463 399.404C165.825 400.027 166.007 400.724 166.007 401.495C166.007 401.62 166.001 401.75 165.99 401.886C165.99 402.022 165.984 402.164 165.973 402.311H159.564C159.609 402.968 159.836 403.484 160.244 403.858C160.663 404.232 161.167 404.419 161.757 404.419C162.199 404.419 162.567 404.323 162.862 404.13C163.168 403.926 163.394 403.665 163.542 403.348H165.752C165.593 403.881 165.327 404.368 164.953 404.81C164.59 405.241 164.137 405.581 163.593 405.83C163.06 406.079 162.454 406.204 161.774 406.204ZM161.791 399.132C161.258 399.132 160.788 399.285 160.38 399.591C159.972 399.886 159.711 400.339 159.598 400.951H163.797C163.763 400.396 163.559 399.954 163.185 399.625C162.811 399.296 162.346 399.132 161.791 399.132ZM170.913 406C170.029 406 169.321 405.785 168.788 405.354C168.255 404.923 167.989 404.158 167.989 403.059V399.387H166.544V397.568H167.989L168.244 395.307H170.165V397.568H172.443V399.387H170.165V403.076C170.165 403.484 170.25 403.767 170.42 403.926C170.601 404.073 170.907 404.147 171.338 404.147H172.392V406H170.913ZM181.413 406.204C180.54 406.204 179.77 406.057 179.101 405.762C178.432 405.456 177.905 405.025 177.52 404.47C177.135 403.903 176.936 403.218 176.925 402.413H179.22C179.243 402.968 179.441 403.439 179.815 403.824C180.2 404.198 180.727 404.385 181.396 404.385C181.974 404.385 182.433 404.249 182.773 403.977C183.113 403.694 183.283 403.32 183.283 402.855C183.283 402.368 183.13 401.988 182.824 401.716C182.529 401.444 182.133 401.223 181.634 401.053C181.135 400.883 180.603 400.702 180.036 400.509C179.118 400.192 178.415 399.784 177.928 399.285C177.452 398.786 177.214 398.123 177.214 397.296C177.203 396.593 177.367 395.993 177.707 395.494C178.058 394.984 178.534 394.593 179.135 394.321C179.736 394.038 180.427 393.896 181.209 393.896C182.002 393.896 182.699 394.038 183.3 394.321C183.912 394.604 184.388 395.001 184.728 395.511C185.079 396.021 185.266 396.627 185.289 397.33H182.96C182.949 396.911 182.784 396.542 182.467 396.225C182.161 395.896 181.73 395.732 181.175 395.732C180.699 395.721 180.297 395.84 179.968 396.089C179.651 396.327 179.492 396.678 179.492 397.143C179.492 397.54 179.617 397.857 179.866 398.095C180.115 398.322 180.455 398.514 180.886 398.673C181.317 398.832 181.81 399.002 182.365 399.183C182.954 399.387 183.493 399.625 183.98 399.897C184.467 400.169 184.858 400.532 185.153 400.985C185.448 401.427 185.595 401.999 185.595 402.702C185.595 403.325 185.436 403.903 185.119 404.436C184.802 404.969 184.331 405.399 183.708 405.728C183.085 406.045 182.32 406.204 181.413 406.204ZM190.668 406C189.784 406 189.076 405.785 188.543 405.354C188.01 404.923 187.744 404.158 187.744 403.059V399.387H186.299V397.568H187.744L187.999 395.307H189.92V397.568H192.198V399.387H189.92V403.076C189.92 403.484 190.005 403.767 190.175 403.926C190.356 404.073 190.662 404.147 191.093 404.147H192.147V406H190.668ZM196.442 406.204C195.717 406.204 195.122 406.091 194.657 405.864C194.192 405.626 193.847 405.314 193.62 404.929C193.393 404.544 193.28 404.119 193.28 403.654C193.28 402.872 193.586 402.237 194.198 401.75C194.81 401.263 195.728 401.019 196.952 401.019H199.094V400.815C199.094 400.237 198.93 399.812 198.601 399.54C198.272 399.268 197.864 399.132 197.377 399.132C196.935 399.132 196.55 399.24 196.221 399.455C195.892 399.659 195.688 399.965 195.609 400.373H193.484C193.541 399.761 193.745 399.228 194.096 398.775C194.459 398.322 194.923 397.976 195.49 397.738C196.057 397.489 196.691 397.364 197.394 397.364C198.595 397.364 199.542 397.664 200.233 398.265C200.924 398.866 201.27 399.716 201.27 400.815V406H199.417L199.213 404.64C198.964 405.093 198.612 405.467 198.159 405.762C197.717 406.057 197.145 406.204 196.442 406.204ZM196.935 404.504C197.558 404.504 198.04 404.3 198.38 403.892C198.731 403.484 198.952 402.98 199.043 402.379H197.19C196.612 402.379 196.198 402.487 195.949 402.702C195.7 402.906 195.575 403.161 195.575 403.467C195.575 403.796 195.7 404.051 195.949 404.232C196.198 404.413 196.527 404.504 196.935 404.504ZM202.815 406V397.568H204.753L204.957 399.149C205.263 398.605 205.677 398.174 206.198 397.857C206.731 397.528 207.354 397.364 208.068 397.364V399.659H207.456C206.98 399.659 206.555 399.733 206.181 399.88C205.807 400.027 205.512 400.282 205.297 400.645C205.093 401.008 204.991 401.512 204.991 402.158V406H202.815ZM212.781 406C211.897 406 211.188 405.785 210.656 405.354C210.123 404.923 209.857 404.158 209.857 403.059V399.387H208.412V397.568H209.857L210.112 395.307H212.033V397.568H214.311V399.387H212.033V403.076C212.033 403.484 212.118 403.767 212.288 403.926C212.469 404.073 212.775 404.147 213.206 404.147H214.26V406H212.781ZM219.529 406.204C218.679 406.204 217.925 406.023 217.268 405.66C216.61 405.297 216.095 404.787 215.721 404.13C215.347 403.473 215.16 402.713 215.16 401.852C215.16 400.979 215.341 400.203 215.704 399.523C216.078 398.843 216.588 398.316 217.234 397.942C217.891 397.557 218.662 397.364 219.546 397.364C220.373 397.364 221.104 397.545 221.739 397.908C222.373 398.271 222.866 398.769 223.218 399.404C223.58 400.027 223.762 400.724 223.762 401.495C223.762 401.62 223.756 401.75 223.745 401.886C223.745 402.022 223.739 402.164 223.728 402.311H217.319C217.364 402.968 217.591 403.484 217.999 403.858C218.418 404.232 218.922 404.419 219.512 404.419C219.954 404.419 220.322 404.323 220.617 404.13C220.923 403.926 221.149 403.665 221.297 403.348H223.507C223.348 403.881 223.082 404.368 222.708 404.81C222.345 405.241 221.892 405.581 221.348 405.83C220.815 406.079 220.209 406.204 219.529 406.204ZM219.546 399.132C219.013 399.132 218.543 399.285 218.135 399.591C217.727 399.886 217.466 400.339 217.353 400.951H221.552C221.518 400.396 221.314 399.954 220.94 399.625C220.566 399.296 220.101 399.132 219.546 399.132ZM228.936 406.204C228.143 406.204 227.435 406.011 226.811 405.626C226.188 405.241 225.695 404.714 225.332 404.045C224.97 403.376 224.788 402.617 224.788 401.767C224.788 400.917 224.97 400.163 225.332 399.506C225.695 398.837 226.188 398.316 226.811 397.942C227.435 397.557 228.143 397.364 228.936 397.364C229.571 397.364 230.126 397.483 230.602 397.721C231.078 397.959 231.464 398.293 231.758 398.724V393.76H233.934V406H231.996L231.758 404.793C231.486 405.167 231.124 405.496 230.67 405.779C230.228 406.062 229.65 406.204 228.936 406.204ZM229.395 404.3C230.098 404.3 230.67 404.068 231.112 403.603C231.566 403.127 231.792 402.521 231.792 401.784C231.792 401.047 231.566 400.447 231.112 399.982C230.67 399.506 230.098 399.268 229.395 399.268C228.704 399.268 228.132 399.5 227.678 399.965C227.225 400.43 226.998 401.03 226.998 401.767C226.998 402.504 227.225 403.11 227.678 403.586C228.132 404.062 228.704 404.3 229.395 404.3Z" fill="white"/>
</g>
<path d="M151.176 70V57.4H155.316C156.3 57.4 157.11 57.562 157.746 57.886C158.382 58.21 158.85 58.648 159.15 59.2C159.462 59.752 159.618 60.376 159.618 61.072C159.618 61.756 159.468 62.374 159.168 62.926C158.868 63.478 158.4 63.922 157.764 64.258C157.128 64.582 156.312 64.744 155.316 64.744H152.688V70H151.176ZM152.688 63.466H155.28C156.288 63.466 157.002 63.256 157.422 62.836C157.854 62.404 158.07 61.816 158.07 61.072C158.07 60.316 157.854 59.728 157.422 59.308C157.002 58.876 156.288 58.66 155.28 58.66H152.688V63.466ZM160.948 70V61.072H162.316L162.442 62.782C162.718 62.194 163.138 61.726 163.702 61.378C164.266 61.03 164.962 60.856 165.79 60.856V62.44H165.376C164.848 62.44 164.362 62.536 163.918 62.728C163.474 62.908 163.12 63.22 162.856 63.664C162.592 64.108 162.46 64.72 162.46 65.5V70H160.948ZM170.604 70.216C169.752 70.216 168.996 70.024 168.336 69.64C167.676 69.244 167.154 68.698 166.77 68.002C166.398 67.306 166.212 66.484 166.212 65.536C166.212 64.6 166.398 63.784 166.77 63.088C167.142 62.38 167.658 61.834 168.318 61.45C168.99 61.054 169.764 60.856 170.64 60.856C171.504 60.856 172.248 61.054 172.872 61.45C173.508 61.834 173.994 62.344 174.33 62.98C174.666 63.616 174.834 64.3 174.834 65.032C174.834 65.164 174.828 65.296 174.816 65.428C174.816 65.56 174.816 65.71 174.816 65.878H167.706C167.742 66.562 167.898 67.132 168.174 67.588C168.462 68.032 168.816 68.368 169.236 68.596C169.668 68.824 170.124 68.938 170.604 68.938C171.228 68.938 171.75 68.794 172.17 68.506C172.59 68.218 172.896 67.828 173.088 67.336H174.582C174.342 68.164 173.88 68.854 173.196 69.406C172.524 69.946 171.66 70.216 170.604 70.216ZM170.604 62.134C169.884 62.134 169.242 62.356 168.678 62.8C168.126 63.232 167.808 63.868 167.724 64.708H173.34C173.304 63.904 173.028 63.274 172.512 62.818C171.996 62.362 171.36 62.134 170.604 62.134ZM176.275 70V61.072H177.643L177.751 62.368C178.039 61.888 178.423 61.516 178.903 61.252C179.383 60.988 179.923 60.856 180.523 60.856C181.231 60.856 181.837 61 182.341 61.288C182.857 61.576 183.253 62.014 183.529 62.602C183.841 62.062 184.267 61.636 184.807 61.324C185.359 61.012 185.953 60.856 186.589 60.856C187.657 60.856 188.509 61.18 189.145 61.828C189.781 62.464 190.099 63.448 190.099 64.78V70H188.605V64.942C188.605 64.018 188.419 63.322 188.047 62.854C187.675 62.386 187.141 62.152 186.445 62.152C185.725 62.152 185.125 62.434 184.645 62.998C184.177 63.55 183.943 64.342 183.943 65.374V70H182.431V64.942C182.431 64.018 182.245 63.322 181.873 62.854C181.501 62.386 180.967 62.152 180.271 62.152C179.563 62.152 178.969 62.434 178.489 62.998C178.021 63.55 177.787 64.342 177.787 65.374V70H176.275ZM192.732 59.092C192.432 59.092 192.18 58.996 191.976 58.804C191.784 58.6 191.688 58.348 191.688 58.048C191.688 57.76 191.784 57.52 191.976 57.328C192.18 57.136 192.432 57.04 192.732 57.04C193.02 57.04 193.266 57.136 193.47 57.328C193.674 57.52 193.776 57.76 193.776 58.048C193.776 58.348 193.674 58.6 193.47 58.804C193.266 58.996 193.02 59.092 192.732 59.092ZM191.976 70V61.072H193.488V70H191.976ZM198.816 70.216C197.76 70.216 196.92 69.898 196.296 69.262C195.672 68.614 195.36 67.624 195.36 66.292V61.072H196.872V66.13C196.872 67.99 197.634 68.92 199.158 68.92C199.938 68.92 200.58 68.644 201.084 68.092C201.6 67.528 201.858 66.73 201.858 65.698V61.072H203.37V70H202.002L201.894 68.398C201.618 68.962 201.204 69.406 200.652 69.73C200.112 70.054 199.5 70.216 198.816 70.216ZM205.296 70V61.072H206.664L206.772 62.368C207.06 61.888 207.444 61.516 207.924 61.252C208.404 60.988 208.944 60.856 209.544 60.856C210.252 60.856 210.858 61 211.362 61.288C211.878 61.576 212.274 62.014 212.55 62.602C212.862 62.062 213.288 61.636 213.828 61.324C214.38 61.012 214.974 60.856 215.61 60.856C216.678 60.856 217.53 61.18 218.166 61.828C218.802 62.464 219.12 63.448 219.12 64.78V70H217.626V64.942C217.626 64.018 217.44 63.322 217.068 62.854C216.696 62.386 216.162 62.152 215.466 62.152C214.746 62.152 214.146 62.434 213.666 62.998C213.198 63.55 212.964 64.342 212.964 65.374V70H211.452V64.942C211.452 64.018 211.266 63.322 210.894 62.854C210.522 62.386 209.988 62.152 209.292 62.152C208.584 62.152 207.99 62.434 207.51 62.998C207.042 63.55 206.808 64.342 206.808 65.374V70H205.296Z" fill="white" fill-opacity="0.7"/>
<path d="M99.4096 153.22V148.6C95.5296 148.16 92.3696 146.8 89.9296 144.52C87.4896 142.24 86.2296 139.18 86.1496 135.34H94.2496C94.3296 136.94 94.8096 138.34 95.6896 139.54C96.6096 140.74 97.8496 141.56 99.4096 142V129.34C99.0496 129.22 98.6696 129.1 98.2696 128.98C97.9096 128.86 97.5296 128.74 97.1296 128.62C93.8896 127.5 91.4096 126.06 89.6896 124.3C88.0096 122.54 87.1696 120.2 87.1696 117.28C87.1296 113.84 88.2496 111.08 90.5296 109C92.8096 106.88 95.7696 105.66 99.4096 105.34V100.48H103.43V105.4C107.03 105.76 109.93 107.02 112.13 109.18C114.37 111.3 115.55 114.04 115.67 117.4H107.45C107.41 116.24 107.03 115.18 106.31 114.22C105.63 113.22 104.67 112.52 103.43 112.12V123.28C103.75 123.4 104.07 123.52 104.39 123.64C104.71 123.72 105.03 123.82 105.35 123.94C107.43 124.66 109.33 125.5 111.05 126.46C112.77 127.42 114.15 128.7 115.19 130.3C116.23 131.86 116.75 133.88 116.75 136.36C116.75 138.44 116.23 140.38 115.19 142.18C114.19 143.98 112.69 145.48 110.69 146.68C108.73 147.84 106.31 148.5 103.43 148.66V153.22H99.4096ZM95.2096 116.74C95.2096 118.02 95.5896 119.06 96.3496 119.86C97.1096 120.62 98.1296 121.28 99.4096 121.84V111.88C98.1696 112.12 97.1496 112.66 96.3496 113.5C95.5896 114.34 95.2096 115.42 95.2096 116.74ZM108.59 136.9C108.59 135.3 108.11 134.04 107.15 133.12C106.19 132.2 104.95 131.42 103.43 130.78V142.18C105.03 141.94 106.29 141.36 107.21 140.44C108.13 139.52 108.59 138.34 108.59 136.9ZM121.396 148V142.42C123.956 140.3 126.436 138.2 128.836 136.12C131.276 134.04 133.436 131.98 135.316 129.94C137.236 127.9 138.756 125.92 139.876 124C141.036 122.04 141.616 120.14 141.616 118.3C141.616 116.58 141.136 115.06 140.176 113.74C139.256 112.42 137.716 111.76 135.556 111.76C133.356 111.76 131.696 112.48 130.576 113.92C129.456 115.36 128.896 117.1 128.896 119.14H121.456C121.536 116.06 122.216 113.5 123.496 111.46C124.776 109.38 126.476 107.84 128.596 106.84C130.716 105.8 133.096 105.28 135.736 105.28C140.016 105.28 143.336 106.46 145.696 108.82C148.096 111.14 149.296 114.16 149.296 117.88C149.296 120.2 148.756 122.46 147.676 124.66C146.636 126.86 145.256 128.98 143.536 131.02C141.816 133.06 139.956 134.98 137.956 136.78C135.956 138.54 134.016 140.18 132.136 141.7H150.316V148H121.396ZM169.706 148.72C166.786 148.72 164.326 148.16 162.326 147.04C160.326 145.88 158.766 144.38 157.646 142.54C156.526 140.7 155.866 138.72 155.666 136.6H162.806C163.126 138.44 163.886 139.86 165.086 140.86C166.326 141.86 167.886 142.36 169.766 142.36C172.446 142.36 174.606 141.14 176.246 138.7C177.886 136.22 178.766 132.46 178.886 127.42C177.926 129.06 176.466 130.42 174.506 131.5C172.586 132.58 170.466 133.12 168.146 133.12C165.826 133.12 163.646 132.56 161.606 131.44C159.566 130.32 157.906 128.74 156.626 126.7C155.346 124.66 154.706 122.26 154.706 119.5C154.706 116.98 155.326 114.64 156.566 112.48C157.806 110.32 159.526 108.58 161.726 107.26C163.926 105.94 166.506 105.28 169.466 105.28C172.626 105.28 175.286 105.86 177.446 107.02C179.606 108.18 181.326 109.74 182.606 111.7C183.926 113.66 184.866 115.84 185.426 118.24C186.026 120.64 186.326 123.1 186.326 125.62C186.326 130.3 185.666 134.38 184.346 137.86C183.066 141.3 181.166 143.98 178.646 145.9C176.166 147.78 173.186 148.72 169.706 148.72ZM169.946 126.64C171.426 126.64 172.766 126.32 173.966 125.68C175.166 125 176.106 124.12 176.786 123.04C177.466 121.92 177.806 120.68 177.806 119.32C177.806 117.16 177.046 115.38 175.526 113.98C174.046 112.58 172.166 111.88 169.886 111.88C167.646 111.88 165.786 112.58 164.306 113.98C162.826 115.34 162.086 117.08 162.086 119.2C162.086 121.44 162.826 123.24 164.306 124.6C165.786 125.96 167.666 126.64 169.946 126.64ZM188.923 151.108L195.923 126.244H199.423L192.395 151.108H188.923ZM200.33 148V134.112H203.494L203.802 135.988C204.25 135.316 204.838 134.784 205.566 134.392C206.312 133.981 207.171 133.776 208.142 133.776C210.288 133.776 211.81 134.607 212.706 136.268C213.21 135.503 213.882 134.896 214.722 134.448C215.58 134 216.514 133.776 217.522 133.776C219.332 133.776 220.723 134.317 221.694 135.4C222.664 136.483 223.15 138.069 223.15 140.16V148H219.566V140.496C219.566 139.301 219.332 138.387 218.866 137.752C218.418 137.117 217.718 136.8 216.766 136.8C215.795 136.8 215.011 137.155 214.414 137.864C213.835 138.573 213.546 139.563 213.546 140.832V148H209.962V140.496C209.962 139.301 209.728 138.387 209.262 137.752C208.795 137.117 208.076 136.8 207.106 136.8C206.154 136.8 205.379 137.155 204.782 137.864C204.203 138.573 203.914 139.563 203.914 140.832V148H200.33ZM232.182 148.336C230.838 148.336 229.625 148.028 228.542 147.412C227.478 146.796 226.629 145.947 225.994 144.864C225.378 143.763 225.07 142.493 225.07 141.056C225.07 139.619 225.387 138.359 226.022 137.276C226.657 136.175 227.506 135.316 228.57 134.7C229.653 134.084 230.866 133.776 232.21 133.776C233.535 133.776 234.73 134.084 235.794 134.7C236.877 135.316 237.726 136.175 238.342 137.276C238.977 138.359 239.294 139.619 239.294 141.056C239.294 142.493 238.977 143.763 238.342 144.864C237.726 145.947 236.877 146.796 235.794 147.412C234.711 148.028 233.507 148.336 232.182 148.336ZM232.182 145.228C233.115 145.228 233.927 144.883 234.618 144.192C235.309 143.483 235.654 142.437 235.654 141.056C235.654 139.675 235.309 138.639 234.618 137.948C233.927 137.239 233.125 136.884 232.21 136.884C231.258 136.884 230.437 137.239 229.746 137.948C229.074 138.639 228.738 139.675 228.738 141.056C228.738 142.437 229.074 143.483 229.746 144.192C230.437 144.883 231.249 145.228 232.182 145.228ZM241.464 148V134.112H244.628L244.908 136.464C245.337 135.643 245.953 134.989 246.756 134.504C247.577 134.019 248.539 133.776 249.64 133.776C251.357 133.776 252.692 134.317 253.644 135.4C254.596 136.483 255.072 138.069 255.072 140.16V148H251.488V140.496C251.488 139.301 251.245 138.387 250.76 137.752C250.275 137.117 249.519 136.8 248.492 136.8C247.484 136.8 246.653 137.155 246 137.864C245.365 138.573 245.048 139.563 245.048 140.832V148H241.464ZM263.653 148C262.197 148 261.03 147.645 260.153 146.936C259.275 146.227 258.837 144.967 258.837 143.156V137.108H256.457V134.112H258.837L259.257 130.388H262.421V134.112H266.173V137.108H262.421V143.184C262.421 143.856 262.561 144.323 262.841 144.584C263.139 144.827 263.643 144.948 264.353 144.948H266.089V148H263.653ZM268.215 148V127.84H271.799V136.24C272.266 135.475 272.891 134.877 273.675 134.448C274.478 134 275.393 133.776 276.419 133.776C278.137 133.776 279.462 134.317 280.395 135.4C281.347 136.483 281.823 138.069 281.823 140.16V148H278.267V140.496C278.267 139.301 278.025 138.387 277.539 137.752C277.073 137.117 276.326 136.8 275.299 136.8C274.291 136.8 273.451 137.155 272.779 137.864C272.126 138.573 271.799 139.563 271.799 140.832V148H268.215Z" fill="white"/>
<path d="M150.876 213.827V215H144.127V213.827H146.796V204.63L144.314 206.211V204.868L147.408 202.896H148.207V213.827H150.876ZM156.713 215.136C155.33 215.136 154.276 214.615 153.551 213.572C152.837 212.518 152.48 210.977 152.48 208.948C152.48 206.919 152.837 205.384 153.551 204.341C154.276 203.287 155.33 202.76 156.713 202.76C158.096 202.76 159.144 203.287 159.858 204.341C160.583 205.384 160.946 206.914 160.946 208.931C160.946 210.96 160.583 212.501 159.858 213.555C159.144 214.609 158.096 215.136 156.713 215.136ZM156.713 213.963C157.676 213.963 158.385 213.555 158.838 212.739C159.303 211.923 159.535 210.654 159.535 208.931C159.535 207.22 159.308 205.962 158.855 205.157C158.402 204.352 157.688 203.95 156.713 203.95C155.75 203.95 155.036 204.352 154.571 205.157C154.118 205.962 153.891 207.22 153.891 208.931C153.891 210.642 154.118 211.912 154.571 212.739C155.036 213.555 155.75 213.963 156.713 213.963ZM183.502 202.896L179.269 215H178.079L174.628 205.089L171.16 215H169.987L165.737 202.896H167.165L170.599 213.011L174.118 202.896L175.189 202.913L178.657 213.045L182.125 202.896H183.502ZM191.074 210.682H184.801C184.812 211.77 185.062 212.592 185.549 213.147C186.048 213.702 186.767 213.98 187.708 213.98C188.705 213.98 189.623 213.646 190.462 212.977L190.921 213.98C190.547 214.331 190.065 214.609 189.476 214.813C188.898 215.017 188.303 215.119 187.691 215.119C186.354 215.119 185.305 214.728 184.546 213.946C183.787 213.153 183.407 212.07 183.407 210.699C183.407 209.826 183.577 209.056 183.917 208.387C184.257 207.707 184.733 207.18 185.345 206.806C185.957 206.432 186.654 206.245 187.436 206.245C188.569 206.245 189.459 206.619 190.105 207.367C190.751 208.104 191.074 209.124 191.074 210.427V210.682ZM187.453 207.316C186.739 207.316 186.155 207.531 185.702 207.962C185.26 208.393 184.977 208.999 184.852 209.781H189.833C189.765 208.976 189.527 208.364 189.119 207.945C188.722 207.526 188.167 207.316 187.453 207.316ZM196.9 206.245C197.648 206.245 198.311 206.426 198.889 206.789C199.467 207.152 199.914 207.667 200.232 208.336C200.549 208.993 200.708 209.764 200.708 210.648C200.708 211.532 200.549 212.314 200.232 212.994C199.914 213.663 199.467 214.184 198.889 214.558C198.311 214.932 197.648 215.119 196.9 215.119C196.231 215.119 195.647 214.972 195.149 214.677C194.65 214.382 194.27 213.963 194.01 213.419V215H192.633V202.488H194.01V207.962C194.259 207.407 194.633 206.982 195.132 206.687C195.642 206.392 196.231 206.245 196.9 206.245ZM196.645 213.98C197.472 213.98 198.118 213.691 198.583 213.113C199.047 212.524 199.28 211.702 199.28 210.648C199.28 209.617 199.047 208.818 198.583 208.251C198.129 207.684 197.483 207.401 196.645 207.401C195.795 207.401 195.143 207.684 194.69 208.251C194.236 208.818 194.01 209.628 194.01 210.682C194.01 211.736 194.236 212.552 194.69 213.13C195.143 213.697 195.795 213.98 196.645 213.98ZM205.184 215.119C203.745 215.119 202.606 214.751 201.767 214.014L202.226 212.994C202.691 213.357 203.161 213.617 203.637 213.776C204.113 213.935 204.646 214.014 205.235 214.014C205.881 214.014 206.369 213.906 206.697 213.691C207.037 213.464 207.207 213.141 207.207 212.722C207.207 212.382 207.094 212.11 206.867 211.906C206.641 211.702 206.267 211.543 205.745 211.43L204.3 211.09C203.586 210.931 203.031 210.648 202.634 210.24C202.249 209.832 202.056 209.345 202.056 208.778C202.056 208.03 202.357 207.424 202.957 206.959C203.558 206.483 204.351 206.245 205.337 206.245C205.938 206.245 206.505 206.341 207.037 206.534C207.57 206.727 208.018 207.004 208.38 207.367L207.921 208.37C207.117 207.701 206.255 207.367 205.337 207.367C204.725 207.367 204.249 207.486 203.909 207.724C203.581 207.951 203.416 208.274 203.416 208.693C203.416 209.044 203.518 209.322 203.722 209.526C203.938 209.73 204.278 209.889 204.742 210.002L206.187 210.359C206.981 210.54 207.57 210.824 207.955 211.209C208.341 211.583 208.533 212.076 208.533 212.688C208.533 213.425 208.233 214.014 207.632 214.456C207.032 214.898 206.216 215.119 205.184 215.119ZM210.197 206.449H211.574V215H210.197V206.449ZM211.744 202.828V204.392H210.061V202.828H211.744ZM215.552 207.537V212.212C215.552 212.847 215.682 213.294 215.943 213.555C216.204 213.804 216.572 213.929 217.048 213.929C217.365 213.929 217.671 213.878 217.966 213.776V214.949C217.615 215.062 217.218 215.119 216.776 215.119C215.96 215.119 215.32 214.892 214.855 214.439C214.402 213.974 214.175 213.294 214.175 212.399V207.537H212.509V206.449H214.175V204.256L215.552 203.763V206.449H218V207.537H215.552ZM226.285 210.682H220.012C220.023 211.77 220.272 212.592 220.76 213.147C221.258 213.702 221.978 213.98 222.919 213.98C223.916 213.98 224.834 213.646 225.673 212.977L226.132 213.98C225.758 214.331 225.276 214.609 224.687 214.813C224.109 215.017 223.514 215.119 222.902 215.119C221.564 215.119 220.516 214.728 219.757 213.946C218.997 213.153 218.618 212.07 218.618 210.699C218.618 209.826 218.788 209.056 219.128 208.387C219.468 207.707 219.944 207.18 220.556 206.806C221.168 206.432 221.865 206.245 222.647 206.245C223.78 206.245 224.67 206.619 225.316 207.367C225.962 208.104 226.285 209.124 226.285 210.427V210.682ZM222.664 207.316C221.95 207.316 221.366 207.531 220.913 207.962C220.471 208.393 220.187 208.999 220.063 209.781H225.044C224.976 208.976 224.738 208.364 224.33 207.945C223.933 207.526 223.378 207.316 222.664 207.316ZM139.338 263.827V265H132.589V263.827H135.258V254.63L132.776 256.211V254.868L135.87 252.896H136.669V263.827H139.338ZM145.685 257.401C146.445 257.401 147.108 257.565 147.674 257.894C148.252 258.211 148.694 258.659 149 259.237C149.306 259.815 149.459 260.484 149.459 261.243C149.459 262.002 149.289 262.677 148.949 263.266C148.621 263.855 148.145 264.314 147.521 264.643C146.909 264.96 146.19 265.119 145.362 265.119C144.626 265.119 143.9 264.989 143.186 264.728C142.472 264.456 141.872 264.088 141.384 263.623L141.911 262.552C143.033 263.481 144.184 263.946 145.362 263.946C146.212 263.946 146.875 263.708 147.351 263.232C147.839 262.745 148.082 262.087 148.082 261.26C148.082 260.455 147.844 259.809 147.368 259.322C146.892 258.823 146.258 258.574 145.464 258.574C144.308 258.574 143.385 259.044 142.693 259.985H141.724V252.896H148.983V254.052H143.118V258.37C143.787 257.724 144.643 257.401 145.685 257.401ZM164.705 258.693V264.303C164.229 264.552 163.606 264.756 162.835 264.915C162.065 265.062 161.283 265.136 160.489 265.136C159.288 265.136 158.251 264.892 157.378 264.405C156.506 263.906 155.837 263.192 155.372 262.263C154.919 261.334 154.692 260.223 154.692 258.931C154.692 257.65 154.919 256.551 155.372 255.633C155.837 254.704 156.494 253.995 157.344 253.508C158.206 253.009 159.22 252.76 160.387 252.76C161.237 252.76 162.014 252.89 162.716 253.151C163.43 253.4 164.042 253.78 164.552 254.29L164.008 255.361C163.419 254.862 162.841 254.505 162.274 254.29C161.719 254.063 161.09 253.95 160.387 253.95C159.016 253.95 157.962 254.381 157.225 255.242C156.5 256.092 156.137 257.322 156.137 258.931C156.137 260.574 156.511 261.827 157.259 262.688C158.007 263.538 159.095 263.963 160.523 263.963C161.532 263.963 162.501 263.804 163.43 263.487V259.798H160.421V258.693H164.705ZM173.905 258.778C174.597 258.971 175.135 259.322 175.52 259.832C175.906 260.331 176.098 260.954 176.098 261.702C176.098 262.756 175.747 263.572 175.044 264.15C174.342 264.717 173.35 265 172.069 265H167.037V252.896H171.899C173.135 252.896 174.092 253.174 174.772 253.729C175.464 254.273 175.809 255.049 175.809 256.058C175.809 256.704 175.639 257.265 175.299 257.741C174.971 258.206 174.506 258.551 173.905 258.778ZM168.414 258.268H171.678C172.585 258.268 173.271 258.087 173.735 257.724C174.2 257.361 174.432 256.829 174.432 256.126C174.432 254.743 173.514 254.052 171.678 254.052H168.414V258.268ZM171.95 263.844C172.902 263.844 173.599 263.668 174.041 263.317C174.495 262.954 174.721 262.405 174.721 261.668C174.721 260.183 173.798 259.441 171.95 259.441H168.414V263.844H171.95ZM192.008 252.896V265H190.614V259.441H183.355V265H181.978V252.896H183.355V258.268H190.614V252.896H192.008ZM197.829 265.119C197.024 265.119 196.316 264.938 195.704 264.575C195.092 264.212 194.616 263.697 194.276 263.028C193.947 262.359 193.783 261.577 193.783 260.682C193.783 259.787 193.947 259.005 194.276 258.336C194.616 257.667 195.092 257.152 195.704 256.789C196.316 256.426 197.024 256.245 197.829 256.245C198.633 256.245 199.342 256.426 199.954 256.789C200.566 257.152 201.036 257.667 201.365 258.336C201.705 259.005 201.875 259.787 201.875 260.682C201.875 261.577 201.705 262.359 201.365 263.028C201.036 263.697 200.566 264.212 199.954 264.575C199.342 264.938 198.633 265.119 197.829 265.119ZM197.829 263.98C198.679 263.98 199.33 263.702 199.784 263.147C200.237 262.58 200.464 261.759 200.464 260.682C200.464 259.639 200.231 258.835 199.767 258.268C199.302 257.69 198.656 257.401 197.829 257.401C196.99 257.401 196.338 257.69 195.874 258.268C195.409 258.835 195.177 259.639 195.177 260.682C195.177 261.759 195.403 262.58 195.857 263.147C196.321 263.702 196.979 263.98 197.829 263.98ZM206.38 265.119C204.94 265.119 203.801 264.751 202.963 264.014L203.422 262.994C203.886 263.357 204.357 263.617 204.833 263.776C205.309 263.935 205.841 264.014 206.431 264.014C207.077 264.014 207.564 263.906 207.893 263.691C208.233 263.464 208.403 263.141 208.403 262.722C208.403 262.382 208.289 262.11 208.063 261.906C207.836 261.702 207.462 261.543 206.941 261.43L205.496 261.09C204.782 260.931 204.226 260.648 203.83 260.24C203.444 259.832 203.252 259.345 203.252 258.778C203.252 258.03 203.552 257.424 204.153 256.959C204.753 256.483 205.547 256.245 206.533 256.245C207.133 256.245 207.7 256.341 208.233 256.534C208.765 256.727 209.213 257.004 209.576 257.367L209.117 258.37C208.312 257.701 207.451 257.367 206.533 257.367C205.921 257.367 205.445 257.486 205.105 257.724C204.776 257.951 204.612 258.274 204.612 258.693C204.612 259.044 204.714 259.322 204.918 259.526C205.133 259.73 205.473 259.889 205.938 260.002L207.383 260.359C208.176 260.54 208.765 260.824 209.151 261.209C209.536 261.583 209.729 262.076 209.729 262.688C209.729 263.425 209.428 264.014 208.828 264.456C208.227 264.898 207.411 265.119 206.38 265.119ZM213.145 257.537V262.212C213.145 262.847 213.275 263.294 213.536 263.555C213.796 263.804 214.165 263.929 214.641 263.929C214.958 263.929 215.264 263.878 215.559 263.776V264.949C215.207 265.062 214.811 265.119 214.369 265.119C213.553 265.119 212.912 264.892 212.448 264.439C211.994 263.974 211.768 263.294 211.768 262.399V257.537H210.102V256.449H211.768V254.256L213.145 253.763V256.449H215.593V257.537H213.145ZM216.721 256.449H218.098V265H216.721V256.449ZM218.268 252.828V254.392H216.585V252.828H218.268ZM224.507 256.245C226.558 256.245 227.584 257.373 227.584 259.628V265H226.207V259.696C226.207 258.903 226.048 258.325 225.731 257.962C225.414 257.588 224.915 257.401 224.235 257.401C223.442 257.401 222.807 257.645 222.331 258.132C221.855 258.619 221.617 259.277 221.617 260.104V265H220.24V258.846C220.24 257.962 220.195 257.163 220.104 256.449H221.413L221.549 257.979C221.81 257.424 222.201 256.999 222.722 256.704C223.243 256.398 223.838 256.245 224.507 256.245ZM237.269 256.449V264.932C237.269 266.201 236.94 267.159 236.283 267.805C235.637 268.462 234.679 268.791 233.41 268.791C232.106 268.791 230.984 268.496 230.044 267.907L230.282 266.785C230.826 267.091 231.336 267.312 231.812 267.448C232.299 267.584 232.832 267.652 233.41 267.652C234.237 267.652 234.86 267.431 235.28 266.989C235.699 266.558 235.909 265.912 235.909 265.051V263.028C235.648 263.572 235.263 263.997 234.753 264.303C234.254 264.598 233.659 264.745 232.968 264.745C232.22 264.745 231.551 264.569 230.962 264.218C230.384 263.867 229.936 263.368 229.619 262.722C229.301 262.076 229.143 261.334 229.143 260.495C229.143 259.656 229.301 258.914 229.619 258.268C229.936 257.622 230.384 257.123 230.962 256.772C231.551 256.421 232.22 256.245 232.968 256.245C233.648 256.245 234.237 256.392 234.736 256.687C235.246 256.982 235.631 257.395 235.892 257.928V256.449H237.269ZM233.24 263.589C234.067 263.589 234.713 263.317 235.178 262.773C235.654 262.218 235.892 261.458 235.892 260.495C235.892 259.532 235.654 258.778 235.178 258.234C234.713 257.679 234.067 257.401 233.24 257.401C232.401 257.401 231.738 257.679 231.251 258.234C230.775 258.778 230.537 259.532 230.537 260.495C230.537 261.458 230.775 262.218 231.251 262.773C231.738 263.317 232.401 263.589 233.24 263.589ZM120.911 302.896H125.739C126.986 302.896 127.955 303.196 128.646 303.797C129.349 304.398 129.7 305.225 129.7 306.279C129.7 307.333 129.349 308.166 128.646 308.778C127.943 309.379 126.974 309.679 125.739 309.679H122.305V315H120.911V302.896ZM125.62 308.523C126.515 308.523 127.19 308.33 127.643 307.945C128.096 307.56 128.323 307.004 128.323 306.279C128.323 305.554 128.096 305.004 127.643 304.63C127.19 304.245 126.515 304.052 125.62 304.052H122.305V308.523H125.62ZM135.095 306.245C135.378 306.245 135.639 306.279 135.877 306.347L135.843 307.605C135.582 307.514 135.282 307.469 134.942 307.469C134.115 307.469 133.497 307.73 133.089 308.251C132.692 308.761 132.494 309.384 132.494 310.121V315H131.117V308.846C131.117 307.962 131.072 307.163 130.981 306.449H132.29L132.426 308.03C132.641 307.452 132.987 307.01 133.463 306.704C133.939 306.398 134.483 306.245 135.095 306.245ZM143.736 310.682H137.463C137.474 311.77 137.723 312.592 138.211 313.147C138.709 313.702 139.429 313.98 140.37 313.98C141.367 313.98 142.285 313.646 143.124 312.977L143.583 313.98C143.209 314.331 142.727 314.609 142.138 314.813C141.56 315.017 140.965 315.119 140.353 315.119C139.015 315.119 137.967 314.728 137.208 313.946C136.448 313.153 136.069 312.07 136.069 310.699C136.069 309.826 136.239 309.056 136.579 308.387C136.919 307.707 137.395 307.18 138.007 306.806C138.619 306.432 139.316 306.245 140.098 306.245C141.231 306.245 142.121 306.619 142.767 307.367C143.413 308.104 143.736 309.124 143.736 310.427V310.682ZM140.115 307.316C139.401 307.316 138.817 307.531 138.364 307.962C137.922 308.393 137.638 308.999 137.514 309.781H142.495C142.427 308.976 142.189 308.364 141.781 307.945C141.384 307.526 140.829 307.316 140.115 307.316ZM154.78 306.245C156.673 306.245 157.619 307.373 157.619 309.628V315H156.242V309.696C156.242 308.891 156.101 308.308 155.817 307.945C155.545 307.582 155.098 307.401 154.474 307.401C153.749 307.401 153.182 307.645 152.774 308.132C152.366 308.619 152.162 309.282 152.162 310.121V315H150.785V309.696C150.785 308.903 150.644 308.325 150.36 307.962C150.077 307.588 149.624 307.401 149 307.401C148.275 307.401 147.703 307.645 147.283 308.132C146.875 308.619 146.671 309.282 146.671 310.121V315H145.294V308.846C145.294 307.962 145.249 307.163 145.158 306.449H146.467L146.603 307.945C146.841 307.401 147.193 306.982 147.657 306.687C148.133 306.392 148.683 306.245 149.306 306.245C149.986 306.245 150.542 306.381 150.972 306.653C151.403 306.925 151.72 307.344 151.924 307.911C152.185 307.401 152.565 306.999 153.063 306.704C153.573 306.398 154.146 306.245 154.78 306.245ZM159.704 306.449H161.081V315H159.704V306.449ZM161.251 302.828V304.392H159.568V302.828H161.251ZM170.38 306.449V315H169.037V313.521C168.765 314.042 168.386 314.439 167.898 314.711C167.411 314.983 166.861 315.119 166.249 315.119C165.241 315.119 164.476 314.836 163.954 314.269C163.433 313.702 163.172 312.864 163.172 311.753V306.449H164.549V311.719C164.549 312.49 164.708 313.056 165.025 313.419C165.343 313.782 165.824 313.963 166.47 313.963C167.23 313.963 167.842 313.719 168.306 313.232C168.771 312.733 169.003 312.082 169.003 311.277V306.449H170.38ZM181.989 306.245C183.882 306.245 184.828 307.373 184.828 309.628V315H183.451V309.696C183.451 308.891 183.31 308.308 183.026 307.945C182.754 307.582 182.307 307.401 181.683 307.401C180.958 307.401 180.391 307.645 179.983 308.132C179.575 308.619 179.371 309.282 179.371 310.121V315H177.994V309.696C177.994 308.903 177.853 308.325 177.569 307.962C177.286 307.588 176.833 307.401 176.209 307.401C175.484 307.401 174.912 307.645 174.492 308.132C174.084 308.619 173.88 309.282 173.88 310.121V315H172.503V308.846C172.503 307.962 172.458 307.163 172.367 306.449H173.676L173.812 307.945C174.05 307.401 174.402 306.982 174.866 306.687C175.342 306.392 175.892 306.245 176.515 306.245C177.195 306.245 177.751 306.381 178.181 306.653C178.612 306.925 178.929 307.344 179.133 307.911C179.394 307.401 179.774 306.999 180.272 306.704C180.782 306.398 181.355 306.245 181.989 306.245ZM194.827 315.136C192.934 315.136 191.427 314.626 190.305 313.606L190.832 312.535C191.432 313.045 192.044 313.408 192.668 313.623C193.291 313.838 194.016 313.946 194.844 313.946C195.818 313.946 196.566 313.759 197.088 313.385C197.62 313 197.887 312.461 197.887 311.77C197.887 311.362 197.756 311.033 197.496 310.784C197.246 310.523 196.912 310.319 196.493 310.172C196.085 310.025 195.535 309.872 194.844 309.713C193.914 309.509 193.149 309.288 192.549 309.05C191.948 308.812 191.461 308.472 191.087 308.03C190.713 307.577 190.526 306.987 190.526 306.262C190.526 305.571 190.707 304.964 191.07 304.443C191.432 303.91 191.942 303.497 192.6 303.202C193.268 302.907 194.045 302.76 194.929 302.76C195.767 302.76 196.549 302.89 197.275 303.151C198 303.412 198.612 303.791 199.111 304.29L198.567 305.361C198 304.874 197.422 304.517 196.833 304.29C196.255 304.063 195.62 303.95 194.929 303.95C193.988 303.95 193.251 304.154 192.719 304.562C192.186 304.959 191.92 305.508 191.92 306.211C191.92 306.823 192.152 307.282 192.617 307.588C193.081 307.894 193.795 308.16 194.759 308.387C195.801 308.636 196.617 308.869 197.207 309.084C197.807 309.288 198.306 309.605 198.703 310.036C199.099 310.455 199.298 311.016 199.298 311.719C199.298 312.399 199.116 313 198.754 313.521C198.391 314.031 197.87 314.428 197.19 314.711C196.521 314.994 195.733 315.136 194.827 315.136ZM208.032 306.449V315H206.689V313.521C206.417 314.042 206.037 314.439 205.55 314.711C205.063 314.983 204.513 315.119 203.901 315.119C202.892 315.119 202.127 314.836 201.606 314.269C201.085 313.702 200.824 312.864 200.824 311.753V306.449H202.201V311.719C202.201 312.49 202.36 313.056 202.677 313.419C202.994 313.782 203.476 313.963 204.122 313.963C204.881 313.963 205.493 313.719 205.958 313.232C206.423 312.733 206.655 312.082 206.655 311.277V306.449H208.032ZM214.422 306.245C215.17 306.245 215.833 306.432 216.411 306.806C216.989 307.18 217.437 307.707 217.754 308.387C218.071 309.056 218.23 309.832 218.23 310.716C218.23 311.6 218.071 312.376 217.754 313.045C217.437 313.702 216.989 314.212 216.411 314.575C215.844 314.938 215.181 315.119 214.422 315.119C213.753 315.119 213.17 314.972 212.671 314.677C212.172 314.382 211.793 313.963 211.532 313.419V318.672H210.155V308.846C210.155 307.962 210.11 307.163 210.019 306.449H211.328L211.464 308.098C211.702 307.509 212.076 307.055 212.586 306.738C213.107 306.409 213.719 306.245 214.422 306.245ZM214.167 313.98C215.006 313.98 215.652 313.697 216.105 313.13C216.57 312.563 216.802 311.759 216.802 310.716C216.802 309.673 216.57 308.863 216.105 308.285C215.64 307.696 214.994 307.401 214.167 307.401C213.317 307.401 212.665 307.684 212.212 308.251C211.759 308.818 211.532 309.628 211.532 310.682C211.532 311.736 211.759 312.552 212.212 313.13C212.665 313.697 213.317 313.98 214.167 313.98ZM224.084 306.245C224.832 306.245 225.495 306.432 226.073 306.806C226.651 307.18 227.098 307.707 227.416 308.387C227.733 309.056 227.892 309.832 227.892 310.716C227.892 311.6 227.733 312.376 227.416 313.045C227.098 313.702 226.651 314.212 226.073 314.575C225.506 314.938 224.843 315.119 224.084 315.119C223.415 315.119 222.831 314.972 222.333 314.677C221.834 314.382 221.454 313.963 221.194 313.419V318.672H219.817V308.846C219.817 307.962 219.771 307.163 219.681 306.449H220.99L221.126 308.098C221.364 307.509 221.738 307.055 222.248 306.738C222.769 306.409 223.381 306.245 224.084 306.245ZM223.829 313.98C224.667 313.98 225.313 313.697 225.767 313.13C226.231 312.563 226.464 311.759 226.464 310.716C226.464 309.673 226.231 308.863 225.767 308.285C225.302 307.696 224.656 307.401 223.829 307.401C222.979 307.401 222.327 307.684 221.874 308.251C221.42 308.818 221.194 309.628 221.194 310.682C221.194 311.736 221.42 312.552 221.874 313.13C222.327 313.697 222.979 313.98 223.829 313.98ZM233.015 315.119C232.21 315.119 231.502 314.938 230.89 314.575C230.278 314.212 229.802 313.697 229.462 313.028C229.133 312.359 228.969 311.577 228.969 310.682C228.969 309.787 229.133 309.005 229.462 308.336C229.802 307.667 230.278 307.152 230.89 306.789C231.502 306.426 232.21 306.245 233.015 306.245C233.819 306.245 234.528 306.426 235.14 306.789C235.752 307.152 236.222 307.667 236.551 308.336C236.891 309.005 237.061 309.787 237.061 310.682C237.061 311.577 236.891 312.359 236.551 313.028C236.222 313.697 235.752 314.212 235.14 314.575C234.528 314.938 233.819 315.119 233.015 315.119ZM233.015 313.98C233.865 313.98 234.516 313.702 234.97 313.147C235.423 312.58 235.65 311.759 235.65 310.682C235.65 309.639 235.417 308.835 234.953 308.268C234.488 307.69 233.842 307.401 233.015 307.401C232.176 307.401 231.524 307.69 231.06 308.268C230.595 308.835 230.363 309.639 230.363 310.682C230.363 311.759 230.589 312.58 231.043 313.147C231.507 313.702 232.165 313.98 233.015 313.98ZM242.654 306.245C242.937 306.245 243.198 306.279 243.436 306.347L243.402 307.605C243.141 307.514 242.841 307.469 242.501 307.469C241.673 307.469 241.056 307.73 240.648 308.251C240.251 308.761 240.053 309.384 240.053 310.121V315H238.676V308.846C238.676 307.962 238.63 307.163 238.54 306.449H239.849L239.985 308.03C240.2 307.452 240.546 307.01 241.022 306.704C241.498 306.398 242.042 306.245 242.654 306.245ZM246.803 307.537V312.212C246.803 312.847 246.934 313.294 247.194 313.555C247.455 313.804 247.823 313.929 248.299 313.929C248.617 313.929 248.923 313.878 249.217 313.776V314.949C248.866 315.062 248.469 315.119 248.027 315.119C247.211 315.119 246.571 314.892 246.106 314.439C245.653 313.974 245.426 313.294 245.426 312.399V307.537H243.76V306.449H245.426V304.256L246.803 303.763V306.449H249.251V307.537H246.803Z" fill="white"/>
</g>
<defs>
<filter id="filter0_d_1_12" x="-34" y="-2" width="444" height="541" filterUnits="userSpaceOnUse" color-interpolation-filters="sRGB">
<feFlood flood-opacity="0" result="BackgroundImageFix"/>
<feColorMatrix in="SourceAlpha" type="matrix" values="0 0 0 0 0 0 0 0 0 0 0 0 0 0 0 0 0 0 127 0" result="hardAlpha"/>
<feOffset dy="32"/>
<feGaussianBlur stdDeviation="17"/>
<feColorMatrix type="matrix" values="0 0 0 0 1 0 0 0 0 0.439216 0 0 0 0 0.231373 0 0 0 0.317827 0"/>
<feBlend mode="normal" in2="BackgroundImageFix" result="effect1_dropShadow_1_12"/>
<feBlend mode="normal" in="SourceGraphic" in2="effect1_dropShadow_1_12" result="shape"/>
</filter>
<clipPath id="clip0_1_12">
<rect width="376" height="473" fill="white"/>
</clipPath>
<clipPath id="clip1_1_12">
<rect width="305" height="60" fill="white" transform="translate(37 370)"/>
</clipPath>
</defs>
</svg>
