<svg width="330" height="441" viewBox="0 0 330 441" fill="none" xmlns="http://www.w3.org/2000/svg">
<g clip-path="url(#clip0_1_4)">
<rect width="330" height="441" rx="10" fill="#F8F8F8"/>
<g clip-path="url(#clip1_1_4)">
<rect x="24" y="354" width="285" height="60" rx="10" fill="white" stroke="#EAE9F2"/>
<path d="M127.313 390.204C126.191 390.204 125.21 389.949 124.372 389.439C123.533 388.929 122.881 388.221 122.417 387.314C121.952 386.396 121.72 385.331 121.72 384.118C121.72 382.894 121.958 381.817 122.434 380.888C122.921 379.947 123.607 379.216 124.491 378.695C125.386 378.162 126.446 377.896 127.67 377.896C129.064 377.896 130.22 378.23 131.138 378.899C132.056 379.568 132.651 380.491 132.923 381.67H130.492C130.31 381.115 129.982 380.684 129.506 380.378C129.03 380.061 128.418 379.902 127.67 379.902C126.48 379.902 125.562 380.282 124.916 381.041C124.27 381.789 123.947 382.82 123.947 384.135C123.947 385.45 124.264 386.47 124.899 387.195C125.545 387.909 126.417 388.266 127.517 388.266C128.593 388.266 129.404 387.977 129.948 387.399C130.503 386.81 130.837 386.039 130.951 385.087H127.942V383.455H133.144V390H131.138L130.968 388.436C130.582 389.003 130.101 389.439 129.523 389.745C128.945 390.051 128.208 390.204 127.313 390.204ZM138.774 390.204C137.924 390.204 137.17 390.023 136.513 389.66C135.855 389.297 135.34 388.787 134.966 388.13C134.592 387.473 134.405 386.713 134.405 385.852C134.405 384.979 134.586 384.203 134.949 383.523C135.323 382.843 135.833 382.316 136.479 381.942C137.136 381.557 137.907 381.364 138.791 381.364C139.618 381.364 140.349 381.545 140.984 381.908C141.618 382.271 142.111 382.769 142.463 383.404C142.825 384.027 143.007 384.724 143.007 385.495C143.007 385.62 143.001 385.75 142.99 385.886C142.99 386.022 142.984 386.164 142.973 386.311H136.564C136.609 386.968 136.836 387.484 137.244 387.858C137.663 388.232 138.167 388.419 138.757 388.419C139.199 388.419 139.567 388.323 139.862 388.13C140.168 387.926 140.394 387.665 140.542 387.348H142.752C142.593 387.881 142.327 388.368 141.953 388.81C141.59 389.241 141.137 389.581 140.593 389.83C140.06 390.079 139.454 390.204 138.774 390.204ZM138.791 383.132C138.258 383.132 137.788 383.285 137.38 383.591C136.972 383.886 136.711 384.339 136.598 384.951H140.797C140.763 384.396 140.559 383.954 140.185 383.625C139.811 383.296 139.346 383.132 138.791 383.132ZM147.913 390C147.029 390 146.321 389.785 145.788 389.354C145.255 388.923 144.989 388.158 144.989 387.059V383.387H143.544V381.568H144.989L145.244 379.307H147.165V381.568H149.443V383.387H147.165V387.076C147.165 387.484 147.25 387.767 147.42 387.926C147.601 388.073 147.907 388.147 148.338 388.147H149.392V390H147.913ZM158.413 390.204C157.54 390.204 156.77 390.057 156.101 389.762C155.432 389.456 154.905 389.025 154.52 388.47C154.135 387.903 153.936 387.218 153.925 386.413H156.22C156.243 386.968 156.441 387.439 156.815 387.824C157.2 388.198 157.727 388.385 158.396 388.385C158.974 388.385 159.433 388.249 159.773 387.977C160.113 387.694 160.283 387.32 160.283 386.855C160.283 386.368 160.13 385.988 159.824 385.716C159.529 385.444 159.133 385.223 158.634 385.053C158.135 384.883 157.603 384.702 157.036 384.509C156.118 384.192 155.415 383.784 154.928 383.285C154.452 382.786 154.214 382.123 154.214 381.296C154.203 380.593 154.367 379.993 154.707 379.494C155.058 378.984 155.534 378.593 156.135 378.321C156.736 378.038 157.427 377.896 158.209 377.896C159.002 377.896 159.699 378.038 160.3 378.321C160.912 378.604 161.388 379.001 161.728 379.511C162.079 380.021 162.266 380.627 162.289 381.33H159.96C159.949 380.911 159.784 380.542 159.467 380.225C159.161 379.896 158.73 379.732 158.175 379.732C157.699 379.721 157.297 379.84 156.968 380.089C156.651 380.327 156.492 380.678 156.492 381.143C156.492 381.54 156.617 381.857 156.866 382.095C157.115 382.322 157.455 382.514 157.886 382.673C158.317 382.832 158.81 383.002 159.365 383.183C159.954 383.387 160.493 383.625 160.98 383.897C161.467 384.169 161.858 384.532 162.153 384.985C162.448 385.427 162.595 385.999 162.595 386.702C162.595 387.325 162.436 387.903 162.119 388.436C161.802 388.969 161.331 389.399 160.708 389.728C160.085 390.045 159.32 390.204 158.413 390.204ZM167.668 390C166.784 390 166.076 389.785 165.543 389.354C165.01 388.923 164.744 388.158 164.744 387.059V383.387H163.299V381.568H164.744L164.999 379.307H166.92V381.568H169.198V383.387H166.92V387.076C166.92 387.484 167.005 387.767 167.175 387.926C167.356 388.073 167.662 388.147 168.093 388.147H169.147V390H167.668ZM173.442 390.204C172.717 390.204 172.122 390.091 171.657 389.864C171.192 389.626 170.847 389.314 170.62 388.929C170.393 388.544 170.28 388.119 170.28 387.654C170.28 386.872 170.586 386.237 171.198 385.75C171.81 385.263 172.728 385.019 173.952 385.019H176.094V384.815C176.094 384.237 175.93 383.812 175.601 383.54C175.272 383.268 174.864 383.132 174.377 383.132C173.935 383.132 173.55 383.24 173.221 383.455C172.892 383.659 172.688 383.965 172.609 384.373H170.484C170.541 383.761 170.745 383.228 171.096 382.775C171.459 382.322 171.923 381.976 172.49 381.738C173.057 381.489 173.691 381.364 174.394 381.364C175.595 381.364 176.542 381.664 177.233 382.265C177.924 382.866 178.27 383.716 178.27 384.815V390H176.417L176.213 388.64C175.964 389.093 175.612 389.467 175.159 389.762C174.717 390.057 174.145 390.204 173.442 390.204ZM173.935 388.504C174.558 388.504 175.04 388.3 175.38 387.892C175.731 387.484 175.952 386.98 176.043 386.379H174.19C173.612 386.379 173.198 386.487 172.949 386.702C172.7 386.906 172.575 387.161 172.575 387.467C172.575 387.796 172.7 388.051 172.949 388.232C173.198 388.413 173.527 388.504 173.935 388.504ZM179.815 390V381.568H181.753L181.957 383.149C182.263 382.605 182.677 382.174 183.198 381.857C183.731 381.528 184.354 381.364 185.068 381.364V383.659H184.456C183.98 383.659 183.555 383.733 183.181 383.88C182.807 384.027 182.512 384.282 182.297 384.645C182.093 385.008 181.991 385.512 181.991 386.158V390H179.815ZM189.781 390C188.897 390 188.188 389.785 187.656 389.354C187.123 388.923 186.857 388.158 186.857 387.059V383.387H185.412V381.568H186.857L187.112 379.307H189.033V381.568H191.311V383.387H189.033V387.076C189.033 387.484 189.118 387.767 189.288 387.926C189.469 388.073 189.775 388.147 190.206 388.147H191.26V390H189.781ZM196.529 390.204C195.679 390.204 194.925 390.023 194.268 389.66C193.61 389.297 193.095 388.787 192.721 388.13C192.347 387.473 192.16 386.713 192.16 385.852C192.16 384.979 192.341 384.203 192.704 383.523C193.078 382.843 193.588 382.316 194.234 381.942C194.891 381.557 195.662 381.364 196.546 381.364C197.373 381.364 198.104 381.545 198.739 381.908C199.373 382.271 199.866 382.769 200.218 383.404C200.58 384.027 200.762 384.724 200.762 385.495C200.762 385.62 200.756 385.75 200.745 385.886C200.745 386.022 200.739 386.164 200.728 386.311H194.319C194.364 386.968 194.591 387.484 194.999 387.858C195.418 388.232 195.922 388.419 196.512 388.419C196.954 388.419 197.322 388.323 197.617 388.13C197.923 387.926 198.149 387.665 198.297 387.348H200.507C200.348 387.881 200.082 388.368 199.708 388.81C199.345 389.241 198.892 389.581 198.348 389.83C197.815 390.079 197.209 390.204 196.529 390.204ZM196.546 383.132C196.013 383.132 195.543 383.285 195.135 383.591C194.727 383.886 194.466 384.339 194.353 384.951H198.552C198.518 384.396 198.314 383.954 197.94 383.625C197.566 383.296 197.101 383.132 196.546 383.132ZM205.936 390.204C205.143 390.204 204.435 390.011 203.811 389.626C203.188 389.241 202.695 388.714 202.332 388.045C201.97 387.376 201.788 386.617 201.788 385.767C201.788 384.917 201.97 384.163 202.332 383.506C202.695 382.837 203.188 382.316 203.811 381.942C204.435 381.557 205.143 381.364 205.936 381.364C206.571 381.364 207.126 381.483 207.602 381.721C208.078 381.959 208.464 382.293 208.758 382.724V377.76H210.934V390H208.996L208.758 388.793C208.486 389.167 208.124 389.496 207.67 389.779C207.228 390.062 206.65 390.204 205.936 390.204ZM206.395 388.3C207.098 388.3 207.67 388.068 208.112 387.603C208.566 387.127 208.792 386.521 208.792 385.784C208.792 385.047 208.566 384.447 208.112 383.982C207.67 383.506 207.098 383.268 206.395 383.268C205.704 383.268 205.132 383.5 204.678 383.965C204.225 384.43 203.998 385.03 203.998 385.767C203.998 386.504 204.225 387.11 204.678 387.586C205.132 388.062 205.704 388.3 206.395 388.3Z" fill="#5454D4"/>
</g>
<path d="M143.961 54.216C143.037 54.216 142.233 54.048 141.549 53.712C140.865 53.376 140.337 52.908 139.965 52.308C139.593 51.708 139.407 51.012 139.407 50.22H140.991C140.991 50.712 141.105 51.168 141.333 51.588C141.561 51.996 141.891 52.326 142.323 52.578C142.767 52.818 143.313 52.938 143.961 52.938C144.813 52.938 145.473 52.734 145.941 52.326C146.409 51.918 146.643 51.408 146.643 50.796C146.643 50.292 146.535 49.89 146.319 49.59C146.103 49.278 145.809 49.026 145.437 48.834C145.077 48.642 144.657 48.474 144.177 48.33C143.709 48.186 143.217 48.024 142.701 47.844C141.729 47.508 141.009 47.094 140.541 46.602C140.073 46.098 139.839 45.444 139.839 44.64C139.827 43.968 139.983 43.374 140.307 42.858C140.631 42.33 141.087 41.922 141.675 41.634C142.275 41.334 142.983 41.184 143.799 41.184C144.603 41.184 145.299 41.334 145.887 41.634C146.487 41.934 146.949 42.348 147.273 42.876C147.609 43.404 147.783 44.004 147.795 44.676H146.211C146.211 44.328 146.121 43.986 145.941 43.65C145.761 43.302 145.485 43.02 145.113 42.804C144.753 42.588 144.297 42.48 143.745 42.48C143.061 42.468 142.497 42.642 142.053 43.002C141.621 43.362 141.405 43.86 141.405 44.496C141.405 45.036 141.555 45.45 141.855 45.738C142.167 46.026 142.599 46.266 143.151 46.458C143.703 46.638 144.339 46.848 145.059 47.088C145.659 47.304 146.199 47.556 146.679 47.844C147.159 48.132 147.531 48.504 147.795 48.96C148.071 49.416 148.209 49.998 148.209 50.706C148.209 51.306 148.053 51.876 147.741 52.416C147.429 52.944 146.955 53.376 146.319 53.712C145.695 54.048 144.909 54.216 143.961 54.216ZM153.228 54C152.412 54 151.77 53.802 151.302 53.406C150.834 53.01 150.6 52.296 150.6 51.264V46.35H149.052V45.072H150.6L150.798 42.93H152.112V45.072H154.74V46.35H152.112V51.264C152.112 51.828 152.226 52.212 152.454 52.416C152.682 52.608 153.084 52.704 153.66 52.704H154.596V54H153.228ZM159.069 54.216C158.325 54.216 157.707 54.09 157.215 53.838C156.723 53.586 156.357 53.25 156.117 52.83C155.877 52.41 155.757 51.954 155.757 51.462C155.757 50.55 156.105 49.848 156.801 49.356C157.497 48.864 158.445 48.618 159.645 48.618H162.057V48.51C162.057 47.73 161.853 47.142 161.445 46.746C161.037 46.338 160.491 46.134 159.807 46.134C159.219 46.134 158.709 46.284 158.277 46.584C157.857 46.872 157.593 47.298 157.485 47.862H155.937C155.997 47.214 156.213 46.668 156.585 46.224C156.969 45.78 157.443 45.444 158.007 45.216C158.571 44.976 159.171 44.856 159.807 44.856C161.055 44.856 161.991 45.192 162.615 45.864C163.251 46.524 163.569 47.406 163.569 48.51V54H162.219L162.129 52.398C161.877 52.902 161.505 53.334 161.013 53.694C160.533 54.042 159.885 54.216 159.069 54.216ZM159.303 52.938C159.879 52.938 160.371 52.788 160.779 52.488C161.199 52.188 161.517 51.798 161.733 51.318C161.949 50.838 162.057 50.334 162.057 49.806V49.788H159.771C158.883 49.788 158.253 49.944 157.881 50.256C157.521 50.556 157.341 50.934 157.341 51.39C157.341 51.858 157.509 52.236 157.845 52.524C158.193 52.8 158.679 52.938 159.303 52.938ZM165.274 54V45.072H166.642L166.768 46.782C167.044 46.194 167.464 45.726 168.028 45.378C168.592 45.03 169.288 44.856 170.116 44.856V46.44H169.702C169.174 46.44 168.688 46.536 168.244 46.728C167.8 46.908 167.446 47.22 167.182 47.664C166.918 48.108 166.786 48.72 166.786 49.5V54H165.274ZM174.779 54C173.963 54 173.321 53.802 172.853 53.406C172.385 53.01 172.151 52.296 172.151 51.264V46.35H170.603V45.072H172.151L172.349 42.93H173.663V45.072H176.291V46.35H173.663V51.264C173.663 51.828 173.777 52.212 174.005 52.416C174.233 52.608 174.635 52.704 175.211 52.704H176.147V54H174.779ZM181.417 54.216C180.565 54.216 179.809 54.024 179.149 53.64C178.489 53.244 177.967 52.698 177.583 52.002C177.211 51.306 177.025 50.484 177.025 49.536C177.025 48.6 177.211 47.784 177.583 47.088C177.955 46.38 178.471 45.834 179.131 45.45C179.803 45.054 180.577 44.856 181.453 44.856C182.317 44.856 183.061 45.054 183.685 45.45C184.321 45.834 184.807 46.344 185.143 46.98C185.479 47.616 185.647 48.3 185.647 49.032C185.647 49.164 185.641 49.296 185.629 49.428C185.629 49.56 185.629 49.71 185.629 49.878H178.519C178.555 50.562 178.711 51.132 178.987 51.588C179.275 52.032 179.629 52.368 180.049 52.596C180.481 52.824 180.937 52.938 181.417 52.938C182.041 52.938 182.563 52.794 182.983 52.506C183.403 52.218 183.709 51.828 183.901 51.336H185.395C185.155 52.164 184.693 52.854 184.009 53.406C183.337 53.946 182.473 54.216 181.417 54.216ZM181.417 46.134C180.697 46.134 180.055 46.356 179.491 46.8C178.939 47.232 178.621 47.868 178.537 48.708H184.153C184.117 47.904 183.841 47.274 183.325 46.818C182.809 46.362 182.173 46.134 181.417 46.134ZM187.088 54V45.072H188.456L188.582 46.782C188.858 46.194 189.278 45.726 189.842 45.378C190.406 45.03 191.102 44.856 191.93 44.856V46.44H191.516C190.988 46.44 190.502 46.536 190.058 46.728C189.614 46.908 189.26 47.22 188.996 47.664C188.732 48.108 188.6 48.72 188.6 49.5V54H187.088Z" fill="#696871"/>
<path d="M107.118 132V90H134.238V96.18H114.798V107.94H130.518V114H114.798V132H107.118ZM138.95 132V102.24H145.79L146.51 107.82C147.59 105.9 149.05 104.38 150.89 103.26C152.77 102.1 154.97 101.52 157.49 101.52V109.62H155.33C153.65 109.62 152.15 109.88 150.83 110.4C149.51 110.92 148.47 111.82 147.71 113.1C146.99 114.38 146.63 116.16 146.63 118.44V132H138.95ZM175.638 132.72C172.638 132.72 169.978 132.08 167.658 130.8C165.338 129.52 163.518 127.72 162.198 125.4C160.878 123.08 160.218 120.4 160.218 117.36C160.218 114.28 160.858 111.54 162.138 109.14C163.458 106.74 165.258 104.88 167.538 103.56C169.858 102.2 172.578 101.52 175.698 101.52C178.618 101.52 181.198 102.16 183.438 103.44C185.678 104.72 187.418 106.48 188.658 108.72C189.938 110.92 190.578 113.38 190.578 116.1C190.578 116.54 190.558 117 190.518 117.48C190.518 117.96 190.498 118.46 190.458 118.98H167.838C167.998 121.3 168.798 123.12 170.238 124.44C171.718 125.76 173.498 126.42 175.578 126.42C177.138 126.42 178.438 126.08 179.478 125.4C180.558 124.68 181.358 123.76 181.878 122.64H189.678C189.118 124.52 188.178 126.24 186.858 127.8C185.578 129.32 183.978 130.52 182.058 131.4C180.178 132.28 178.038 132.72 175.638 132.72ZM175.698 107.76C173.818 107.76 172.158 108.3 170.718 109.38C169.278 110.42 168.358 112.02 167.958 114.18H182.778C182.658 112.22 181.938 110.66 180.618 109.5C179.298 108.34 177.658 107.76 175.698 107.76ZM210.463 132.72C207.463 132.72 204.803 132.08 202.483 130.8C200.163 129.52 198.343 127.72 197.023 125.4C195.703 123.08 195.043 120.4 195.043 117.36C195.043 114.28 195.683 111.54 196.963 109.14C198.283 106.74 200.083 104.88 202.363 103.56C204.683 102.2 207.403 101.52 210.523 101.52C213.443 101.52 216.023 102.16 218.263 103.44C220.503 104.72 222.243 106.48 223.483 108.72C224.763 110.92 225.403 113.38 225.403 116.1C225.403 116.54 225.383 117 225.343 117.48C225.343 117.96 225.323 118.46 225.283 118.98H202.663C202.823 121.3 203.623 123.12 205.063 124.44C206.543 125.76 208.323 126.42 210.403 126.42C211.963 126.42 213.263 126.08 214.303 125.4C215.383 124.68 216.183 123.76 216.703 122.64H224.503C223.943 124.52 223.003 126.24 221.683 127.8C220.403 129.32 218.803 130.52 216.883 131.4C215.003 132.28 212.863 132.72 210.463 132.72ZM210.523 107.76C208.643 107.76 206.983 108.3 205.543 109.38C204.103 110.42 203.183 112.02 202.783 114.18H217.603C217.483 112.22 216.763 110.66 215.443 109.5C214.123 108.34 212.483 107.76 210.523 107.76Z" fill="#1D293F"/>
<path d="M136.207 197.827V199H129.458V197.827H132.127V188.63L129.645 190.211V188.868L132.739 186.896H133.538V197.827H136.207ZM159.171 186.896L154.938 199H153.748L150.297 189.089L146.829 199H145.656L141.406 186.896H142.834L146.268 197.011L149.787 186.896L150.858 186.913L154.326 197.045L157.794 186.896H159.171ZM166.743 194.682H160.47C160.481 195.77 160.731 196.592 161.218 197.147C161.717 197.702 162.436 197.98 163.377 197.98C164.374 197.98 165.292 197.646 166.131 196.977L166.59 197.98C166.216 198.331 165.734 198.609 165.145 198.813C164.567 199.017 163.972 199.119 163.36 199.119C162.023 199.119 160.974 198.728 160.215 197.946C159.456 197.153 159.076 196.07 159.076 194.699C159.076 193.826 159.246 193.056 159.586 192.387C159.926 191.707 160.402 191.18 161.014 190.806C161.626 190.432 162.323 190.245 163.105 190.245C164.238 190.245 165.128 190.619 165.774 191.367C166.42 192.104 166.743 193.124 166.743 194.427V194.682ZM163.122 191.316C162.408 191.316 161.824 191.531 161.371 191.962C160.929 192.393 160.646 192.999 160.521 193.781H165.502C165.434 192.976 165.196 192.364 164.788 191.945C164.391 191.526 163.836 191.316 163.122 191.316ZM172.569 190.245C173.317 190.245 173.98 190.426 174.558 190.789C175.136 191.152 175.583 191.667 175.901 192.336C176.218 192.993 176.377 193.764 176.377 194.648C176.377 195.532 176.218 196.314 175.901 196.994C175.583 197.663 175.136 198.184 174.558 198.558C173.98 198.932 173.317 199.119 172.569 199.119C171.9 199.119 171.316 198.972 170.818 198.677C170.319 198.382 169.939 197.963 169.679 197.419V199H168.302V186.488H169.679V191.962C169.928 191.407 170.302 190.982 170.801 190.687C171.311 190.392 171.9 190.245 172.569 190.245ZM172.314 197.98C173.141 197.98 173.787 197.691 174.252 197.113C174.716 196.524 174.949 195.702 174.949 194.648C174.949 193.617 174.716 192.818 174.252 192.251C173.798 191.684 173.152 191.401 172.314 191.401C171.464 191.401 170.812 191.684 170.359 192.251C169.905 192.818 169.679 193.628 169.679 194.682C169.679 195.736 169.905 196.552 170.359 197.13C170.812 197.697 171.464 197.98 172.314 197.98ZM180.853 199.119C179.414 199.119 178.275 198.751 177.436 198.014L177.895 196.994C178.36 197.357 178.83 197.617 179.306 197.776C179.782 197.935 180.315 198.014 180.904 198.014C181.55 198.014 182.038 197.906 182.366 197.691C182.706 197.464 182.876 197.141 182.876 196.722C182.876 196.382 182.763 196.11 182.536 195.906C182.31 195.702 181.936 195.543 181.414 195.43L179.969 195.09C179.255 194.931 178.7 194.648 178.303 194.24C177.918 193.832 177.725 193.345 177.725 192.778C177.725 192.03 178.026 191.424 178.626 190.959C179.227 190.483 180.02 190.245 181.006 190.245C181.607 190.245 182.174 190.341 182.706 190.534C183.239 190.727 183.687 191.004 184.049 191.367L183.59 192.37C182.786 191.701 181.924 191.367 181.006 191.367C180.394 191.367 179.918 191.486 179.578 191.724C179.25 191.951 179.085 192.274 179.085 192.693C179.085 193.044 179.187 193.322 179.391 193.526C179.607 193.73 179.947 193.889 180.411 194.002L181.856 194.359C182.65 194.54 183.239 194.824 183.624 195.209C184.01 195.583 184.202 196.076 184.202 196.688C184.202 197.425 183.902 198.014 183.301 198.456C182.701 198.898 181.885 199.119 180.853 199.119ZM185.866 190.449H187.243V199H185.866V190.449ZM187.413 186.828V188.392H185.73V186.828H187.413ZM191.221 191.537V196.212C191.221 196.847 191.351 197.294 191.612 197.555C191.873 197.804 192.241 197.929 192.717 197.929C193.034 197.929 193.34 197.878 193.635 197.776V198.949C193.284 199.062 192.887 199.119 192.445 199.119C191.629 199.119 190.989 198.892 190.524 198.439C190.071 197.974 189.844 197.294 189.844 196.399V191.537H188.178V190.449H189.844V188.256L191.221 187.763V190.449H193.669V191.537H191.221ZM201.954 194.682H195.681C195.692 195.77 195.941 196.592 196.429 197.147C196.927 197.702 197.647 197.98 198.588 197.98C199.585 197.98 200.503 197.646 201.342 196.977L201.801 197.98C201.427 198.331 200.945 198.609 200.356 198.813C199.778 199.017 199.183 199.119 198.571 199.119C197.233 199.119 196.185 198.728 195.426 197.946C194.666 197.153 194.287 196.07 194.287 194.699C194.287 193.826 194.457 193.056 194.797 192.387C195.137 191.707 195.613 191.18 196.225 190.806C196.837 190.432 197.534 190.245 198.316 190.245C199.449 190.245 200.339 190.619 200.985 191.367C201.631 192.104 201.954 193.124 201.954 194.427V194.682ZM198.333 191.316C197.619 191.316 197.035 191.531 196.582 191.962C196.14 192.393 195.856 192.999 195.732 193.781H200.713C200.645 192.976 200.407 192.364 199.999 191.945C199.602 191.526 199.047 191.316 198.333 191.316ZM121.354 241.401C122.114 241.401 122.777 241.565 123.343 241.894C123.921 242.211 124.363 242.659 124.669 243.237C124.975 243.815 125.128 244.484 125.128 245.243C125.128 246.002 124.958 246.677 124.618 247.266C124.29 247.855 123.814 248.314 123.19 248.643C122.578 248.96 121.859 249.119 121.031 249.119C120.295 249.119 119.569 248.989 118.855 248.728C118.141 248.456 117.541 248.088 117.053 247.623L117.58 246.552C118.702 247.481 119.853 247.946 121.031 247.946C121.881 247.946 122.544 247.708 123.02 247.232C123.508 246.745 123.751 246.087 123.751 245.26C123.751 244.455 123.513 243.809 123.037 243.322C122.561 242.823 121.927 242.574 121.133 242.574C119.977 242.574 119.054 243.044 118.362 243.985H117.393V236.896H124.652V238.052H118.787V242.37C119.456 241.724 120.312 241.401 121.354 241.401ZM140.374 242.693V248.303C139.898 248.552 139.275 248.756 138.504 248.915C137.734 249.062 136.952 249.136 136.158 249.136C134.957 249.136 133.92 248.892 133.047 248.405C132.175 247.906 131.506 247.192 131.041 246.263C130.588 245.334 130.361 244.223 130.361 242.931C130.361 241.65 130.588 240.551 131.041 239.633C131.506 238.704 132.163 237.995 133.013 237.508C133.875 237.009 134.889 236.76 136.056 236.76C136.906 236.76 137.683 236.89 138.385 237.151C139.099 237.4 139.711 237.78 140.221 238.29L139.677 239.361C139.088 238.862 138.51 238.505 137.943 238.29C137.388 238.063 136.759 237.95 136.056 237.95C134.685 237.95 133.631 238.381 132.894 239.242C132.169 240.092 131.806 241.322 131.806 242.931C131.806 244.574 132.18 245.827 132.928 246.688C133.676 247.538 134.764 247.963 136.192 247.963C137.201 247.963 138.17 247.804 139.099 247.487V243.798H136.09V242.693H140.374ZM149.575 242.778C150.266 242.971 150.804 243.322 151.19 243.832C151.575 244.331 151.768 244.954 151.768 245.702C151.768 246.756 151.416 247.572 150.714 248.15C150.011 248.717 149.019 249 147.739 249H142.707V236.896H147.569C148.804 236.896 149.762 237.174 150.442 237.729C151.133 238.273 151.479 239.049 151.479 240.058C151.479 240.704 151.309 241.265 150.969 241.741C150.64 242.206 150.175 242.551 149.575 242.778ZM144.084 242.268H147.348C148.254 242.268 148.94 242.087 149.405 241.724C149.869 241.361 150.102 240.829 150.102 240.126C150.102 238.743 149.184 238.052 147.348 238.052H144.084V242.268ZM147.62 247.844C148.572 247.844 149.269 247.668 149.711 247.317C150.164 246.954 150.391 246.405 150.391 245.668C150.391 244.183 149.467 243.441 147.62 243.441H144.084V247.844H147.62ZM167.677 236.896V249H166.283V243.441H159.024V249H157.647V236.896H159.024V242.268H166.283V236.896H167.677ZM173.498 249.119C172.693 249.119 171.985 248.938 171.373 248.575C170.761 248.212 170.285 247.697 169.945 247.028C169.616 246.359 169.452 245.577 169.452 244.682C169.452 243.787 169.616 243.005 169.945 242.336C170.285 241.667 170.761 241.152 171.373 240.789C171.985 240.426 172.693 240.245 173.498 240.245C174.302 240.245 175.011 240.426 175.623 240.789C176.235 241.152 176.705 241.667 177.034 242.336C177.374 243.005 177.544 243.787 177.544 244.682C177.544 245.577 177.374 246.359 177.034 247.028C176.705 247.697 176.235 248.212 175.623 248.575C175.011 248.938 174.302 249.119 173.498 249.119ZM173.498 247.98C174.348 247.98 174.999 247.702 175.453 247.147C175.906 246.58 176.133 245.759 176.133 244.682C176.133 243.639 175.9 242.835 175.436 242.268C174.971 241.69 174.325 241.401 173.498 241.401C172.659 241.401 172.007 241.69 171.543 242.268C171.078 242.835 170.846 243.639 170.846 244.682C170.846 245.759 171.072 246.58 171.526 247.147C171.99 247.702 172.648 247.98 173.498 247.98ZM182.049 249.119C180.609 249.119 179.47 248.751 178.632 248.014L179.091 246.994C179.555 247.357 180.026 247.617 180.502 247.776C180.978 247.935 181.51 248.014 182.1 248.014C182.746 248.014 183.233 247.906 183.562 247.691C183.902 247.464 184.072 247.141 184.072 246.722C184.072 246.382 183.958 246.11 183.732 245.906C183.505 245.702 183.131 245.543 182.61 245.43L181.165 245.09C180.451 244.931 179.895 244.648 179.499 244.24C179.113 243.832 178.921 243.345 178.921 242.778C178.921 242.03 179.221 241.424 179.822 240.959C180.422 240.483 181.216 240.245 182.202 240.245C182.802 240.245 183.369 240.341 183.902 240.534C184.434 240.727 184.882 241.004 185.245 241.367L184.786 242.37C183.981 241.701 183.12 241.367 182.202 241.367C181.59 241.367 181.114 241.486 180.774 241.724C180.445 241.951 180.281 242.274 180.281 242.693C180.281 243.044 180.383 243.322 180.587 243.526C180.802 243.73 181.142 243.889 181.607 244.002L183.052 244.359C183.845 244.54 184.434 244.824 184.82 245.209C185.205 245.583 185.398 246.076 185.398 246.688C185.398 247.425 185.097 248.014 184.497 248.456C183.896 248.898 183.08 249.119 182.049 249.119ZM188.814 241.537V246.212C188.814 246.847 188.944 247.294 189.205 247.555C189.465 247.804 189.834 247.929 190.31 247.929C190.627 247.929 190.933 247.878 191.228 247.776V248.949C190.876 249.062 190.48 249.119 190.038 249.119C189.222 249.119 188.581 248.892 188.117 248.439C187.663 247.974 187.437 247.294 187.437 246.399V241.537H185.771V240.449H187.437V238.256L188.814 237.763V240.449H191.262V241.537H188.814ZM192.39 240.449H193.767V249H192.39V240.449ZM193.937 236.828V238.392H192.254V236.828H193.937ZM200.176 240.245C202.227 240.245 203.253 241.373 203.253 243.628V249H201.876V243.696C201.876 242.903 201.717 242.325 201.4 241.962C201.083 241.588 200.584 241.401 199.904 241.401C199.111 241.401 198.476 241.645 198 242.132C197.524 242.619 197.286 243.277 197.286 244.104V249H195.909V242.846C195.909 241.962 195.864 241.163 195.773 240.449H197.082L197.218 241.979C197.479 241.424 197.87 240.999 198.391 240.704C198.912 240.398 199.507 240.245 200.176 240.245ZM212.938 240.449V248.932C212.938 250.201 212.609 251.159 211.952 251.805C211.306 252.462 210.348 252.791 209.079 252.791C207.776 252.791 206.654 252.496 205.713 251.907L205.951 250.785C206.495 251.091 207.005 251.312 207.481 251.448C207.968 251.584 208.501 251.652 209.079 251.652C209.906 251.652 210.53 251.431 210.949 250.989C211.368 250.558 211.578 249.912 211.578 249.051V247.028C211.317 247.572 210.932 247.997 210.422 248.303C209.923 248.598 209.328 248.745 208.637 248.745C207.889 248.745 207.22 248.569 206.631 248.218C206.053 247.867 205.605 247.368 205.288 246.722C204.971 246.076 204.812 245.334 204.812 244.495C204.812 243.656 204.971 242.914 205.288 242.268C205.605 241.622 206.053 241.123 206.631 240.772C207.22 240.421 207.889 240.245 208.637 240.245C209.317 240.245 209.906 240.392 210.405 240.687C210.915 240.982 211.3 241.395 211.561 241.928V240.449H212.938ZM208.909 247.589C209.736 247.589 210.382 247.317 210.847 246.773C211.323 246.218 211.561 245.458 211.561 244.495C211.561 243.532 211.323 242.778 210.847 242.234C210.382 241.679 209.736 241.401 208.909 241.401C208.07 241.401 207.407 241.679 206.92 242.234C206.444 242.778 206.206 243.532 206.206 244.495C206.206 245.458 206.444 246.218 206.92 246.773C207.407 247.317 208.07 247.589 208.909 247.589ZM107.512 286.896H108.906V297.81H114.975V299H107.512V286.896ZM116.074 290.449H117.451V299H116.074V290.449ZM117.621 286.828V288.392H115.938V286.828H117.621ZM129.08 290.245C130.972 290.245 131.919 291.373 131.919 293.628V299H130.542V293.696C130.542 292.891 130.4 292.308 130.117 291.945C129.845 291.582 129.397 291.401 128.774 291.401C128.048 291.401 127.482 291.645 127.074 292.132C126.666 292.619 126.462 293.282 126.462 294.121V299H125.085V293.696C125.085 292.903 124.943 292.325 124.66 291.962C124.376 291.588 123.923 291.401 123.3 291.401C122.574 291.401 122.002 291.645 121.583 292.132C121.175 292.619 120.971 293.282 120.971 294.121V299H119.594V292.846C119.594 291.962 119.548 291.163 119.458 290.449H120.767L120.903 291.945C121.141 291.401 121.492 290.982 121.957 290.687C122.433 290.392 122.982 290.245 123.606 290.245C124.286 290.245 124.841 290.381 125.272 290.653C125.702 290.925 126.02 291.344 126.224 291.911C126.484 291.401 126.864 290.999 127.363 290.704C127.873 290.398 128.445 290.245 129.08 290.245ZM134.004 290.449H135.381V299H134.004V290.449ZM135.551 286.828V288.392H133.868V286.828H135.551ZM139.359 291.537V296.212C139.359 296.847 139.489 297.294 139.75 297.555C140.011 297.804 140.379 297.929 140.855 297.929C141.172 297.929 141.478 297.878 141.773 297.776V298.949C141.422 299.062 141.025 299.119 140.583 299.119C139.767 299.119 139.127 298.892 138.662 298.439C138.209 297.974 137.982 297.294 137.982 296.399V291.537H136.316V290.449H137.982V288.256L139.359 287.763V290.449H141.807V291.537H139.359ZM150.092 294.682H143.819C143.83 295.77 144.08 296.592 144.567 297.147C145.066 297.702 145.785 297.98 146.726 297.98C147.723 297.98 148.641 297.646 149.48 296.977L149.939 297.98C149.565 298.331 149.083 298.609 148.494 298.813C147.916 299.017 147.321 299.119 146.709 299.119C145.372 299.119 144.323 298.728 143.564 297.946C142.805 297.153 142.425 296.07 142.425 294.699C142.425 293.826 142.595 293.056 142.935 292.387C143.275 291.707 143.751 291.18 144.363 290.806C144.975 290.432 145.672 290.245 146.454 290.245C147.587 290.245 148.477 290.619 149.123 291.367C149.769 292.104 150.092 293.124 150.092 294.427V294.682ZM146.471 291.316C145.757 291.316 145.173 291.531 144.72 291.962C144.278 292.393 143.995 292.999 143.87 293.781H148.851C148.783 292.976 148.545 292.364 148.137 291.945C147.74 291.526 147.185 291.316 146.471 291.316ZM159.181 286.488V299H157.821V297.453C157.572 297.986 157.192 298.399 156.682 298.694C156.184 298.977 155.6 299.119 154.931 299.119C154.183 299.119 153.52 298.932 152.942 298.558C152.376 298.184 151.934 297.663 151.616 296.994C151.299 296.314 151.14 295.532 151.14 294.648C151.14 293.764 151.293 292.993 151.599 292.336C151.917 291.667 152.364 291.152 152.942 290.789C153.52 290.426 154.183 290.245 154.931 290.245C155.6 290.245 156.184 290.392 156.682 290.687C157.181 290.97 157.555 291.373 157.804 291.894V286.488H159.181ZM155.203 297.98C156.042 297.98 156.688 297.697 157.141 297.13C157.595 296.552 157.821 295.736 157.821 294.682C157.821 293.639 157.595 292.835 157.141 292.268C156.688 291.69 156.042 291.401 155.203 291.401C154.365 291.401 153.707 291.684 153.231 292.251C152.767 292.818 152.534 293.617 152.534 294.648C152.534 295.702 152.767 296.524 153.231 297.113C153.707 297.691 154.365 297.98 155.203 297.98ZM169.225 299.136C167.333 299.136 165.825 298.626 164.703 297.606L165.23 296.535C165.831 297.045 166.443 297.408 167.066 297.623C167.69 297.838 168.415 297.946 169.242 297.946C170.217 297.946 170.965 297.759 171.486 297.385C172.019 297 172.285 296.461 172.285 295.77C172.285 295.362 172.155 295.033 171.894 294.784C171.645 294.523 171.311 294.319 170.891 294.172C170.483 294.025 169.934 293.872 169.242 293.713C168.313 293.509 167.548 293.288 166.947 293.05C166.347 292.812 165.859 292.472 165.485 292.03C165.111 291.577 164.924 290.987 164.924 290.262C164.924 289.571 165.106 288.964 165.468 288.443C165.831 287.91 166.341 287.497 166.998 287.202C167.667 286.907 168.443 286.76 169.327 286.76C170.166 286.76 170.948 286.89 171.673 287.151C172.399 287.412 173.011 287.791 173.509 288.29L172.965 289.361C172.399 288.874 171.821 288.517 171.231 288.29C170.653 288.063 170.019 287.95 169.327 287.95C168.387 287.95 167.65 288.154 167.117 288.562C166.585 288.959 166.318 289.508 166.318 290.211C166.318 290.823 166.551 291.282 167.015 291.588C167.48 291.894 168.194 292.16 169.157 292.387C170.2 292.636 171.016 292.869 171.605 293.084C172.206 293.288 172.705 293.605 173.101 294.036C173.498 294.455 173.696 295.016 173.696 295.719C173.696 296.399 173.515 297 173.152 297.521C172.79 298.031 172.268 298.428 171.588 298.711C170.92 298.994 170.132 299.136 169.225 299.136ZM182.431 290.449V299H181.088V297.521C180.816 298.042 180.436 298.439 179.949 298.711C179.461 298.983 178.912 299.119 178.3 299.119C177.291 299.119 176.526 298.836 176.005 298.269C175.483 297.702 175.223 296.864 175.223 295.753V290.449H176.6V295.719C176.6 296.49 176.758 297.056 177.076 297.419C177.393 297.782 177.875 297.963 178.521 297.963C179.28 297.963 179.892 297.719 180.357 297.232C180.821 296.733 181.054 296.082 181.054 295.277V290.449H182.431ZM188.821 290.245C189.569 290.245 190.232 290.432 190.81 290.806C191.388 291.18 191.836 291.707 192.153 292.387C192.47 293.056 192.629 293.832 192.629 294.716C192.629 295.6 192.47 296.376 192.153 297.045C191.836 297.702 191.388 298.212 190.81 298.575C190.243 298.938 189.58 299.119 188.821 299.119C188.152 299.119 187.569 298.972 187.07 298.677C186.571 298.382 186.192 297.963 185.931 297.419V302.672H184.554V292.846C184.554 291.962 184.509 291.163 184.418 290.449H185.727L185.863 292.098C186.101 291.509 186.475 291.055 186.985 290.738C187.506 290.409 188.118 290.245 188.821 290.245ZM188.566 297.98C189.405 297.98 190.051 297.697 190.504 297.13C190.969 296.563 191.201 295.759 191.201 294.716C191.201 293.673 190.969 292.863 190.504 292.285C190.039 291.696 189.393 291.401 188.566 291.401C187.716 291.401 187.064 291.684 186.611 292.251C186.158 292.818 185.931 293.628 185.931 294.682C185.931 295.736 186.158 296.552 186.611 297.13C187.064 297.697 187.716 297.98 188.566 297.98ZM198.483 290.245C199.231 290.245 199.894 290.432 200.472 290.806C201.05 291.18 201.497 291.707 201.815 292.387C202.132 293.056 202.291 293.832 202.291 294.716C202.291 295.6 202.132 296.376 201.815 297.045C201.497 297.702 201.05 298.212 200.472 298.575C199.905 298.938 199.242 299.119 198.483 299.119C197.814 299.119 197.23 298.972 196.732 298.677C196.233 298.382 195.853 297.963 195.593 297.419V302.672H194.216V292.846C194.216 291.962 194.17 291.163 194.08 290.449H195.389L195.525 292.098C195.763 291.509 196.137 291.055 196.647 290.738C197.168 290.409 197.78 290.245 198.483 290.245ZM198.228 297.98C199.066 297.98 199.712 297.697 200.166 297.13C200.63 296.563 200.863 295.759 200.863 294.716C200.863 293.673 200.63 292.863 200.166 292.285C199.701 291.696 199.055 291.401 198.228 291.401C197.378 291.401 196.726 291.684 196.273 292.251C195.819 292.818 195.593 293.628 195.593 294.682C195.593 295.736 195.819 296.552 196.273 297.13C196.726 297.697 197.378 297.98 198.228 297.98ZM207.414 299.119C206.609 299.119 205.901 298.938 205.289 298.575C204.677 298.212 204.201 297.697 203.861 297.028C203.532 296.359 203.368 295.577 203.368 294.682C203.368 293.787 203.532 293.005 203.861 292.336C204.201 291.667 204.677 291.152 205.289 290.789C205.901 290.426 206.609 290.245 207.414 290.245C208.218 290.245 208.927 290.426 209.539 290.789C210.151 291.152 210.621 291.667 210.95 292.336C211.29 293.005 211.46 293.787 211.46 294.682C211.46 295.577 211.29 296.359 210.95 297.028C210.621 297.697 210.151 298.212 209.539 298.575C208.927 298.938 208.218 299.119 207.414 299.119ZM207.414 297.98C208.264 297.98 208.915 297.702 209.369 297.147C209.822 296.58 210.049 295.759 210.049 294.682C210.049 293.639 209.816 292.835 209.352 292.268C208.887 291.69 208.241 291.401 207.414 291.401C206.575 291.401 205.923 291.69 205.459 292.268C204.994 292.835 204.762 293.639 204.762 294.682C204.762 295.759 204.988 296.58 205.442 297.147C205.906 297.702 206.564 297.98 207.414 297.98ZM217.053 290.245C217.336 290.245 217.597 290.279 217.835 290.347L217.801 291.605C217.54 291.514 217.24 291.469 216.9 291.469C216.072 291.469 215.455 291.73 215.047 292.251C214.65 292.761 214.452 293.384 214.452 294.121V299H213.075V292.846C213.075 291.962 213.029 291.163 212.939 290.449H214.248L214.384 292.03C214.599 291.452 214.945 291.01 215.421 290.704C215.897 290.398 216.441 290.245 217.053 290.245ZM221.202 291.537V296.212C221.202 296.847 221.333 297.294 221.593 297.555C221.854 297.804 222.222 297.929 222.698 297.929C223.016 297.929 223.322 297.878 223.616 297.776V298.949C223.265 299.062 222.868 299.119 222.426 299.119C221.61 299.119 220.97 298.892 220.505 298.439C220.052 297.974 219.825 297.294 219.825 296.399V291.537H218.159V290.449H219.825V288.256L221.202 287.763V290.449H223.65V291.537H221.202Z" fill="#696871"/>
</g>
<defs>
<clipPath id="clip0_1_4">
<rect width="330" height="441" fill="white"/>
</clipPath>
<clipPath id="clip1_1_4">
<rect width="285" height="60" fill="white" transform="translate(24 354)"/>
</clipPath>
</defs>
</svg>
